<svg xmlns="http://www.w3.org/2000/svg" xmlns:xlink="http://www.w3.org/1999/xlink" viewBox="0 0 368.64 174.45"><defs><style>.cls-1{fill:none;}.cls-2{fill:#76c1a5;}.cls-3{fill:#5bc2dc;}.cls-4{fill:#a2d5d2;}.cls-5{fill:#cccbac;}.cls-6{fill:#bad486;}.cls-7{fill:#f8c364;}.cls-8{fill:#e889b3;}.cls-9{fill:#ce9dc4;}.cls-10{fill:#c7e3d2;}.cls-11{fill:#eaea98;}.cls-12{fill:#9daeb9;}.cls-13{fill:#fbea50;}.cls-14{fill:#90cbb4;}.cls-15{fill:#ede87b;}.cls-16{fill:#62b9b1;}.cls-17{fill:#c8b5a3;}.cls-18{fill:#d9e7b6;}.cls-19{fill:#c3cfce;}.cls-20{fill:url(#Unnamed_Pattern);}</style><pattern id="Unnamed_Pattern" data-name="Unnamed Pattern" width="621.99" height="627.01" patternTransform="translate(657.16 13.03) rotate(90) scale(0.33)" patternUnits="userSpaceOnUse" viewBox="0 0 621.99 627.01"><rect class="cls-1" width="621.99" height="627.01"/><polygon class="cls-2" points="621.99 627.01 518.33 627.01 570.16 548.59 621.99 627.01"/><polygon class="cls-3" points="414.47 313.62 362.83 391.75 311.18 313.62 414.47 313.62"/><polygon class="cls-2" points="414.66 627.01 311 627.01 362.83 548.59 414.66 627.01"/><polygon class="cls-4" points="259.16 391.75 207.52 313.62 310.81 313.62 259.16 391.75"/><polygon class="cls-4" points="103.27 156.25 154.25 79.12 154.65 79.71 103.67 156.84 103.27 156.25"/><polygon class="cls-5" points="518.33 627.01 414.66 627.01 466.49 548.59 518.33 627.01"/><polygon class="cls-6" points="414.66 470.17 518.33 470.17 466.49 548.59 414.66 470.17"/><polygon class="cls-4" points="414.66 470.17 362.83 548.59 311 470.17 414.66 470.17"/><polygon class="cls-4" points="414.66 156.84 413.81 155.55 464.79 78.42 465.64 79.71 414.66 156.84"/><polygon class="cls-4" points="517.47 155.55 568.45 78.42 569.31 79.71 518.33 156.84 517.47 155.55"/><polygon class="cls-6" points="155.5 391.75 103.85 313.62 207.14 313.62 155.5 391.75"/><polygon class="cls-7" points="311 627.01 207.33 627.01 259.16 548.59 311 627.01"/><polygon class="cls-4" points="207.33 156.84 206.48 155.55 257.46 78.42 258.31 79.71 207.33 156.84"/><polygon class="cls-4" points="155.5 548.59 103.67 470.17 207.33 470.17 155.5 548.59"/><polygon class="cls-4" points="311 156.84 310.14 155.55 361.12 78.42 361.98 79.71 311 156.84"/><polygon class="cls-8" points="311 470.17 259.16 548.59 207.33 470.17 311 470.17"/><polygon class="cls-4" points="51.83 391.75 0.19 313.62 103.48 313.62 51.83 391.75"/><polygon class="cls-4" points="518.14 313.62 466.49 391.75 414.85 313.62 518.14 313.62"/><polygon class="cls-5" points="258.43 235.2 206.63 156.84 207.33 156.84 309.29 156.84 310.22 156.84 258.43 235.2"/><polygon class="cls-4" points="154.76 235.2 102.97 156.84 103.67 156.84 205.63 156.84 206.55 156.84 154.76 235.2"/><polygon class="cls-4" points="518.33 156.84 620.29 156.84 621.21 156.84 569.42 235.2 517.63 156.84 518.33 156.84"/><polygon class="cls-4" points="362.09 235.2 310.3 156.84 311 156.84 412.96 156.84 413.88 156.84 362.09 235.2"/><polygon class="cls-3" points="414.66 156.84 516.62 156.84 517.55 156.84 465.76 235.2 413.96 156.84 414.66 156.84"/><polygon class="cls-4" points="621.8 313.62 570.16 391.75 518.51 313.62 621.8 313.62"/><polygon class="cls-3" points="207.33 0 311 0 259.16 78.42 207.33 0"/><polygon class="cls-4" points="311 0 414.66 0 362.83 78.42 311 0"/><polygon class="cls-9" points="103.67 0 207.33 0 155.5 78.42 103.67 0"/><polygon class="cls-8" points="414.66 0 518.33 0 466.49 78.42 414.66 0"/><polygon class="cls-4" points="518.33 0 621.99 0 570.16 78.42 518.33 0"/><polygon class="cls-4" points="621.99 156.84 621.99 157.89 621.29 156.84 621.99 156.84"/><polygon class="cls-4" points="518.33 470.17 621.99 470.17 570.16 548.59 518.33 470.17"/><polygon class="cls-4" points="621.99 154.26 621.99 156.84 621.14 155.55 621.99 154.26"/><polygon class="cls-4" points="0 0 103.67 0 51.83 78.42 0 0"/><polygon class="cls-7" points="51.83 548.59 0 470.17 103.67 470.17 51.83 548.59"/><polygon class="cls-2" points="103.67 627.01 0 627.01 51.83 548.59 103.67 627.01"/><polygon class="cls-2" points="207.33 627.01 103.67 627.01 155.5 548.59 207.33 627.01"/><polygon class="cls-7" points="102.89 156.84 51.09 235.2 0 157.89 0 156.84 102.88 156.84 102.89 156.84"/><polygon class="cls-4" points="51.44 79.01 0 156.84 0 155.66 51.05 78.42 51.44 79.01"/><polygon class="cls-10" points="0 627.01 0 548.59 51.83 548.59 0 627.01"/><polygon class="cls-11" points="155.5 548.59 103.67 627.01 51.83 548.59 155.5 548.59"/><polygon class="cls-10" points="259.16 548.59 207.33 627.01 155.5 548.59 259.16 548.59"/><polygon class="cls-9" points="362.83 548.59 311 627.01 259.16 548.59 362.83 548.59"/><polygon class="cls-3" points="466.49 548.59 414.66 627.01 362.83 548.59 466.49 548.59"/><polygon class="cls-12" points="570.16 548.59 518.33 627.01 466.49 548.59 570.16 548.59"/><polygon class="cls-10" points="570.16 548.59 621.99 548.59 621.99 627.01 570.16 548.59"/><polygon class="cls-10" points="0 235.2 0 157.89 51.09 235.2 0 235.2"/><polygon class="cls-5" points="154.76 235.2 51.83 235.2 51.09 235.2 102.89 156.84 102.97 156.84 154.76 235.2"/><polygon class="cls-12" points="206.63 156.84 258.43 235.2 155.5 235.2 154.76 235.2 206.55 156.84 206.63 156.84"/><polygon class="cls-10" points="258.43 235.2 310.22 156.84 310.3 156.84 362.09 235.2 259.16 235.2 258.43 235.2"/><polygon class="cls-11" points="362.09 235.2 413.88 156.84 413.96 156.84 465.76 235.2 362.83 235.2 362.09 235.2"/><polygon class="cls-10" points="465.76 235.2 517.55 156.84 517.63 156.84 569.42 235.2 466.49 235.2 465.76 235.2"/><polygon class="cls-10" points="569.42 235.2 621.21 156.84 621.29 156.84 621.99 157.89 621.99 235.2 570.16 235.2 569.42 235.2"/><polygon class="cls-10" points="103.48 313.62 0.19 313.62 0.09 313.48 51.83 235.2 103.57 313.48 103.48 313.62"/><polygon class="cls-11" points="207.14 313.62 103.85 313.62 103.76 313.48 155.5 235.2 207.24 313.48 207.14 313.62"/><polygon class="cls-10" points="310.81 313.62 207.52 313.62 207.42 313.48 259.16 235.2 310.9 313.48 310.81 313.62"/><polygon class="cls-5" points="311.09 313.48 362.83 235.2 414.57 313.48 414.47 313.62 311.18 313.62 311.09 313.48"/><polygon class="cls-12" points="414.75 313.48 466.49 235.2 518.23 313.48 518.14 313.62 414.85 313.62 414.75 313.48"/><polygon class="cls-10" points="518.42 313.48 570.16 235.2 621.9 313.48 621.8 313.62 518.51 313.62 518.42 313.48"/><polygon class="cls-10" points="103.67 156.84 102.97 156.84 102.89 156.84 102.88 156.84 103.27 156.25 103.67 156.84"/><polygon class="cls-11" points="102.88 156.84 0 156.84 51.44 79.01 102.88 156.84"/><polygon class="cls-3" points="154.65 79.71 205.63 156.84 103.67 156.84 154.65 79.71"/><polygon class="cls-10" points="206.55 156.84 205.63 156.84 206.48 155.55 207.33 156.84 206.63 156.84 206.55 156.84"/><polygon class="cls-9" points="258.31 79.71 309.29 156.84 207.33 156.84 258.31 79.71"/><polygon class="cls-10" points="310.22 156.84 309.29 156.84 310.14 155.55 311 156.84 310.3 156.84 310.22 156.84"/><polygon class="cls-10" points="361.98 79.71 412.96 156.84 311 156.84 361.98 79.71"/><polygon class="cls-10" points="413.88 156.84 412.96 156.84 413.81 155.55 414.66 156.84 413.96 156.84 413.88 156.84"/><polygon class="cls-13" points="465.64 79.71 516.62 156.84 414.66 156.84 465.64 79.71"/><polygon class="cls-10" points="517.47 155.55 518.33 156.84 517.63 156.84 517.55 156.84 516.62 156.84 517.47 155.55"/><polygon class="cls-5" points="569.31 79.71 620.29 156.84 518.33 156.84 569.31 79.71"/><polygon class="cls-10" points="621.21 156.84 620.29 156.84 621.14 155.55 621.99 156.84 621.29 156.84 621.21 156.84"/><polygon class="cls-11" points="0 470.17 0 391.75 51.83 391.75 0 470.17"/><polygon class="cls-9" points="103.67 470.17 51.83 391.75 155.5 391.75 103.67 470.17"/><polygon class="cls-5" points="207.33 470.17 155.5 391.75 259.16 391.75 207.33 470.17"/><polygon class="cls-11" points="362.83 391.75 311 470.17 259.16 391.75 362.83 391.75"/><polygon class="cls-9" points="466.49 391.75 414.66 470.17 362.83 391.75 466.49 391.75"/><polygon class="cls-5" points="570.16 391.75 518.33 470.17 466.49 391.75 570.16 391.75"/><polygon class="cls-11" points="621.99 391.75 621.99 470.17 570.16 391.75 621.99 391.75"/><polygon class="cls-5" points="0 548.59 0 470.17 51.83 548.59 0 548.59"/><polygon class="cls-6" points="51.83 548.59 103.67 470.17 155.5 548.59 51.83 548.59"/><polygon class="cls-14" points="259.16 548.59 155.5 548.59 207.33 470.17 259.16 548.59"/><polygon class="cls-5" points="362.83 548.59 259.16 548.59 311 470.17 362.83 548.59"/><polygon class="cls-15" points="466.49 548.59 362.83 548.59 414.66 470.17 466.49 548.59"/><polygon class="cls-5" points="518.33 470.17 570.16 548.59 466.49 548.59 518.33 470.17"/><polygon class="cls-5" points="621.99 470.17 621.99 548.59 570.16 548.59 621.99 470.17"/><polygon class="cls-11" points="51.05 78.42 0 78.42 0 0 51.83 78.42 51.05 78.42"/><polygon class="cls-5" points="154.72 78.42 153.79 78.42 51.83 78.42 103.67 0 155.5 78.42 154.72 78.42"/><polygon class="cls-11" points="257.46 78.42 155.5 78.42 207.33 0 259.16 78.42 257.46 78.42"/><polygon class="cls-5" points="361.12 78.42 259.16 78.42 311 0 362.83 78.42 361.12 78.42"/><polygon class="cls-11" points="464.79 78.42 362.83 78.42 414.66 0 466.49 78.42 464.79 78.42"/><polygon class="cls-11" points="568.45 78.42 466.49 78.42 518.33 0 570.16 78.42 568.45 78.42"/><polygon class="cls-11" points="621.99 0 621.99 78.42 570.16 78.42 621.99 0"/><polygon class="cls-16" points="0 155.66 0 78.42 51.05 78.42 0 155.66"/><polygon class="cls-10" points="103.27 156.25 102.88 156.84 51.44 79.01 51.05 78.42 51.83 78.42 153.79 78.42 154.25 79.12 103.27 156.25"/><polygon class="cls-7" points="205.63 156.84 154.65 79.71 154.25 79.12 153.79 78.42 154.72 78.42 155.5 78.42 257.46 78.42 206.48 155.55 205.63 156.84"/><polygon class="cls-6" points="309.29 156.84 258.31 79.71 257.46 78.42 259.16 78.42 361.12 78.42 310.14 155.55 309.29 156.84"/><polygon class="cls-14" points="412.96 156.84 361.98 79.71 361.12 78.42 362.83 78.42 464.79 78.42 413.81 155.55 412.96 156.84"/><polygon class="cls-17" points="516.62 156.84 465.64 79.71 464.79 78.42 466.49 78.42 568.45 78.42 517.47 155.55 516.62 156.84"/><polygon class="cls-16" points="620.29 156.84 569.31 79.71 568.45 78.42 570.16 78.42 621.99 78.42 621.99 154.26 621.14 155.55 620.29 156.84"/><polygon class="cls-9" points="51.83 235.2 0.09 313.48 0 313.33 0 235.2 51.09 235.2 51.83 235.2"/><polygon class="cls-18" points="0.19 313.62 51.83 391.75 51.83 391.75 0 391.75 0 313.33 0.09 313.48 0.19 313.62"/><polygon class="cls-9" points="155.5 235.2 103.76 313.48 103.67 313.33 103.57 313.48 51.83 235.2 154.76 235.2 155.5 235.2"/><polygon class="cls-18" points="103.57 313.48 103.67 313.33 103.76 313.48 103.85 313.62 155.5 391.75 155.5 391.75 51.83 391.75 51.83 391.75 103.48 313.62 103.57 313.48"/><polygon class="cls-13" points="259.16 235.2 207.42 313.48 207.33 313.33 207.24 313.48 155.5 235.2 258.43 235.2 259.16 235.2"/><polygon class="cls-18" points="207.24 313.48 207.33 313.33 207.42 313.48 207.52 313.62 259.16 391.75 259.16 391.75 155.5 391.75 155.5 391.75 207.14 313.62 207.24 313.48"/><polygon class="cls-9" points="311 313.33 310.9 313.48 259.16 235.2 362.09 235.2 362.83 235.2 311.09 313.48 311 313.33"/><polygon class="cls-18" points="259.16 391.75 310.81 313.62 310.9 313.48 311 313.33 311.09 313.48 311.18 313.62 362.83 391.75 362.83 391.75 259.16 391.75 259.16 391.75"/><polygon class="cls-19" points="414.66 313.33 414.57 313.48 362.83 235.2 465.76 235.2 466.49 235.2 414.75 313.48 414.66 313.33"/><polygon class="cls-18" points="362.83 391.75 414.47 313.62 414.57 313.48 414.66 313.33 414.75 313.48 414.85 313.62 466.49 391.75 466.49 391.75 362.83 391.75 362.83 391.75"/><polygon class="cls-6" points="518.33 313.33 518.23 313.48 466.49 235.2 569.42 235.2 570.16 235.2 518.42 313.48 518.33 313.33"/><polygon class="cls-18" points="466.49 391.75 518.14 313.62 518.23 313.48 518.33 313.33 518.42 313.48 518.51 313.62 570.16 391.75 570.16 391.75 466.49 391.75 466.49 391.75"/><polygon class="cls-9" points="570.16 235.2 621.99 235.2 621.99 313.33 621.9 313.48 570.16 235.2"/><polygon class="cls-18" points="570.16 391.75 621.8 313.62 621.9 313.48 621.99 313.33 621.99 391.75 570.16 391.75 570.16 391.75"/><polygon class="cls-12" points="51.83 391.75 51.83 391.75 103.67 470.17 0 470.17 51.83 391.75 51.83 391.75"/><polygon class="cls-12" points="155.5 391.75 155.5 391.75 207.33 470.17 103.67 470.17 155.5 391.75 155.5 391.75"/><polygon class="cls-3" points="259.16 391.75 259.16 391.75 311 470.17 207.33 470.17 259.16 391.75 259.16 391.75"/><polygon class="cls-12" points="362.83 391.75 362.83 391.75 362.83 391.75 414.66 470.17 311 470.17 362.83 391.75"/><polygon class="cls-7" points="466.49 391.75 466.49 391.75 466.49 391.75 518.33 470.17 414.66 470.17 466.49 391.75"/><polygon class="cls-12" points="570.16 391.75 570.16 391.75 570.16 391.75 621.99 470.17 518.33 470.17 570.16 391.75"/></pattern></defs><title>Element 2</title><g id="Ebene_2" data-name="Ebene 2"><g id="Ebene_1-2" data-name="Ebene 1"><path class="cls-20" d="M90.93,37.54a1.17,1.17,0,0,1,1.44.48c2.93-1.87,3.94-6.07,2.2-9.94-1.91-4.3-6.45-6.56-10.13-5.07s-5.11,6.18-3.19,10.47c1.73,3.88,5.6,6.09,9,5.38A1.07,1.07,0,0,1,90.93,37.54Z"/><path class="cls-20" d="M126.68,119l.77.29.61-1.43-6.37-14.26a21.54,21.54,0,0,1-.44,2.54Z"/><path class="cls-20" d="M146.85,160l-.56-1.26h-1.38a.47.47,0,1,1,0-.94h0a21.33,21.33,0,0,1-2.36-1.8l1.72,3.85,1.09-.42A1.16,1.16,0,0,1,146.85,160Z"/><path class="cls-20" d="M146.78,161a1.22,1.22,0,0,1-.54.46h0A1.17,1.17,0,0,0,146.78,161Z"/><path class="cls-20" d="M105.7,67.82a1.09,1.09,0,0,1-.07.35,1.15,1.15,0,0,1-.61.6l-.14,0-.1.07a1.21,1.21,0,0,1-.88,0,1.1,1.1,0,0,1-.31-.2L112.4,88.4a22.23,22.23,0,0,1,3.28,1.76Z"/><path class="cls-20" d="M133.49,130.07l-2.23-5-3-1.23,5.49,12.28A49.9,49.9,0,0,1,133.49,130.07Z"/><path class="cls-20" d="M104.37,64.84,92.43,38.12s0-.06-.06-.1a1.17,1.17,0,0,0-1.44-.48,1.07,1.07,0,0,0-.63,1.32.35.35,0,0,0,0,.11l11.93,26.72,1.5.58Z"/><path class="cls-20" d="M128.85,121.72l1.12.45-.58-1.3a1.09,1.09,0,0,1-.07.35A1.14,1.14,0,0,1,128.85,121.72Z"/><path class="cls-20" d="M104.78,68.86l.1-.07a1.11,1.11,0,0,1-.74,0l-.72-.27a1.37,1.37,0,0,0,.17.17,1.1,1.1,0,0,0,.31.2A1.21,1.21,0,0,0,104.78,68.86Z"/><path class="cls-20" d="M105,66.75a1.06,1.06,0,0,1,.68.84L112.28,52c-1,.63-1.66,1-1.66,1s-.3-.45-.7-1.22l-5.55,13.13-.61,1.43Z"/><path class="cls-20" d="M123.85,79.16c-.9.56-1.5.85-1.5.85s-.33-.5-.77-1.35l-5.1,12.06a16.63,16.63,0,0,1,1.82,1.57Z"/><path class="cls-20" d="M128.69,119.8a1.06,1.06,0,0,1,.68.84l6.32-15a17.06,17.06,0,0,1-1.49.85s-.33-.5-.77-1.35l-5.37,12.7-.61,1.43Z"/><path class="cls-20" d="M104.88,68.79l.14,0a1.15,1.15,0,0,0,.61-.6,1.09,1.09,0,0,0,.07-.35,1.64,1.64,0,0,0,0-.23,1.06,1.06,0,0,0-.68-.84l-1.24-.48-1.5-.58L88.48,60.4c.3.81.44,1.33.44,1.33a18.25,18.25,0,0,1-1.88.48l16.38,6.29.72.27A1.11,1.11,0,0,0,104.88,68.79Z"/><path class="cls-20" d="M99.58,89l8.55,3.28a21.92,21.92,0,0,1,.28-2.25l-7.64-2.93a14.75,14.75,0,0,1,.49,1.46S100.62,88.77,99.58,89Z"/><path class="cls-20" d="M113.11,115.09l-.35.11L124.63,120l-.9-2.12-11.11-4.26C113,114.51,113.11,115.09,113.11,115.09Z"/><path class="cls-20" d="M128.69,119.8l-1.24-.48-.77-.29.89,2.09a1.3,1.3,0,0,1,.18.15l1.1.45a1.14,1.14,0,0,0,.47-.5,1.09,1.09,0,0,0,.07-.35,1.64,1.64,0,0,0,0-.23A1.06,1.06,0,0,0,128.69,119.8Z"/><path class="cls-20" d="M112.28,52c2.25-1.43,6.14-4.44,7.39-8.76,1.8-6.22-2.52-12.78-2.52-12.78s-7.25,3.51-9.05,9.73c-1.33,4.59.68,9.37,1.82,11.55.4.77.7,1.22.7,1.22S111.29,52.6,112.28,52Z"/><path class="cls-20" d="M123.85,79.16c2.22-1.39,6.26-4.44,7.55-8.88,1.8-6.21-2.52-12.77-2.52-12.77s-7.25,3.51-9,9.73c-1.31,4.51.6,9.18,1.75,11.42.44.85.77,1.35.77,1.35S123,79.72,123.85,79.16Z"/><path class="cls-20" d="M135.69,105.69c2.22-1.39,6.27-4.44,7.55-8.87C145,90.6,140.72,84,140.72,84s-7.24,3.51-9,9.73c-1.31,4.51.6,9.18,1.75,11.42.44.85.77,1.35.77,1.35A17.06,17.06,0,0,0,135.69,105.69Z"/><path class="cls-20" d="M88.48,60.4c-.86-2.29-3.07-7-7.47-9.26-6-3.07-13.63-.53-13.63-.53s2,7.51,7.91,10.59c4.14,2.13,9.1,1.56,11.75,1a18.25,18.25,0,0,0,1.88-.48S88.78,61.21,88.48,60.4Z"/><path class="cls-20" d="M79.72,77.44a17.6,17.6,0,0,0,.73,2,21.9,21.9,0,0,1,.48-2.38C80.17,77.29,79.72,77.44,79.72,77.44Z"/><path class="cls-20" d="M92.38,83.5a13,13,0,0,1,1.58,6A23.81,23.81,0,0,0,99.58,89c1-.23,1.68-.44,1.68-.44a14.75,14.75,0,0,0-.49-1.46c-.89-2.34-3.1-6.9-7.42-9.13a17.2,17.2,0,0,0-9.93-1.32C86,77.62,90.23,79.71,92.38,83.5Z"/><path class="cls-20" d="M94.49,103.3a21.64,21.64,0,0,0-2.92.67,19,19,0,0,0,1.21,3.12l4,1.63Z"/><path class="cls-20" d="M94.63,110.22c.19.26.38.51.59.77l.67-.26Z"/><path class="cls-20" d="M98.77,112l-1.92.73a12.53,12.53,0,0,0,2.63,1.85,16.73,16.73,0,0,0,9.28,1.39L99,112Z"/><path class="cls-20" d="M112.62,113.63c-.9-2.34-3.11-6.9-7.42-9.13A16.18,16.18,0,0,0,96.85,103l2.88,6.8a1.37,1.37,0,0,1,.18.16l12.85,5.21.35-.11S113,114.51,112.62,113.63Z"/><path class="cls-20" d="M15.81,140.9a1.15,1.15,0,0,1,1.37-.62c.69-3.3-1.71-6.95-5.82-8.52C6.82,130,1.93,131.46.44,135s1,7.81,5.51,9.55c4.1,1.58,8.48.54,10.39-2.29A1.06,1.06,0,0,1,15.81,140.9Z"/><path class="cls-20" d="M48.72,152.36a1.08,1.08,0,0,1,.21.3,1,1,0,0,1,0,.83l-.07.11a.53.53,0,0,1,0,.12,1.12,1.12,0,0,1-.61.6,1.16,1.16,0,0,1-.37.07l20.87,8a24,24,0,0,1,3.63-1Z"/><path class="cls-20" d="M99.38,173.55h2.69l-.38-.84-15.08-5.8a24.63,24.63,0,0,1,1.57,2.1Z"/><path class="cls-20" d="M45.57,151.15,17.3,140.3a.5.5,0,0,0-.12,0,1.15,1.15,0,0,0-1.37.62,1.06,1.06,0,0,0,.53,1.36s.06.05.1.06l28.27,10.86,1.49-.6Z"/><path class="cls-20" d="M48.84,153.72a.53.53,0,0,0,0-.12,1.1,1.1,0,0,1-.55.49l-.7.29a1,1,0,0,0,.24,0,1.16,1.16,0,0,0,.37-.07A1.12,1.12,0,0,0,48.84,153.72Z"/><path class="cls-20" d="M47.43,152.08a1.16,1.16,0,0,1,1.1.13l-6.91-15.49a17.52,17.52,0,0,1-.46,1.8s-.55-.12-1.41-.39l5.82,13,.63,1.43Z"/><path class="cls-20" d="M70,148.15c-.22,1-.42,1.62-.42,1.62s-.61-.14-1.55-.45l5.34,12a16.35,16.35,0,0,1,2.44-.12Z"/><path class="cls-20" d="M104.56,173.55,98,158.94a15.67,15.67,0,0,1-.42,1.61s-.61-.14-1.55-.45l5.63,12.61.38.84Z"/><path class="cls-20" d="M48.87,153.6l.07-.11a1,1,0,0,0,0-.83,1.08,1.08,0,0,0-.21-.3l-.19-.15a1.16,1.16,0,0,0-1.1-.13l-1.23.5-1.49.6L31,158.72c.82.37,1.3.65,1.3.65a16.84,16.84,0,0,1-1,1.6l16.25-6.59.7-.29A1.1,1.1,0,0,0,48.87,153.6Z"/><path class="cls-20" d="M60.11,171.46,68.6,168a20.83,20.83,0,0,1-1.47-1.78l-7.59,3.08c.9.4,1.44.7,1.44.7S60.68,170.6,60.11,171.46Z"/><path class="cls-20" d="M41.62,136.72c.52-2.53,1-7.27-1.29-11.17-3.33-5.61-11.26-7.34-11.26-7.34s-2.51,7.37.82,13c2.47,4.14,7.44,6.16,9.86,6.94.86.27,1.41.39,1.41.39A17.52,17.52,0,0,0,41.62,136.72Z"/><path class="cls-20" d="M70,148.15c.54-2.48,1.13-7.36-1.25-11.36-3.33-5.61-11.26-7.33-11.26-7.33s-2.51,7.37.82,13c2.42,4.07,7.24,6.09,9.72,6.89.94.31,1.55.45,1.55.45S69.75,149.15,70,148.15Z"/><path class="cls-20" d="M98,158.94c.54-2.48,1.14-7.37-1.24-11.37-3.34-5.61-11.26-7.33-11.26-7.33s-2.52,7.36.82,13c2.42,4.07,7.24,6.09,9.71,6.89.94.31,1.55.45,1.55.45A15.67,15.67,0,0,0,98,158.94Z"/><path class="cls-20" d="M31,158.72c-2.31-1.05-7.36-2.87-12.15-1.51-6.49,1.83-10,8.8-10,8.8s7,4,13.45,2.16c4.51-1.28,7.6-5,9.07-7.2a16.84,16.84,0,0,0,1-1.6S31.86,159.09,31,158.72Z"/><path class="cls-20" d="M50.94,172.42a13,13,0,0,1,2.7,1.13h4.9a21.4,21.4,0,0,0,1.57-2.09c.57-.86.87-1.44.87-1.44s-.54-.3-1.44-.7c-2.36-1.06-7.31-2.79-12-1.46a16.4,16.4,0,0,0-8,5.69h.11C42.26,172.51,46.7,171.22,50.94,172.42Z"/><path class="cls-20" d="M254,173.55h6.07l-10.67-4.09A54.06,54.06,0,0,1,254,173.55Z"/><path class="cls-20" d="M221.75,160.78a1.11,1.11,0,0,1,0-.78l0,0,0,0A1.08,1.08,0,0,0,221.75,160.78Z"/><path class="cls-20" d="M222.41,161.44l1.34.52,1-.93a.5.5,0,0,1,.7,0,.45.45,0,0,1,0,.66h0a24.62,24.62,0,0,1,3-.31l-4.06-1.56-.46,1A1.16,1.16,0,0,1,222.41,161.44Z"/><path class="cls-20" d="M279.59,170.45l.17-.31-8.88,3.41h4.23l5.92-2.4A15.8,15.8,0,0,1,279.59,170.45Z"/><path class="cls-20" d="M296.28,161.44l-1-.14-.28.63Z"/><path class="cls-20" d="M301.51,166.24a19.74,19.74,0,0,0,1.57-2.44,22.37,22.37,0,0,0-3.17-1.4l-4,1.56Z"/><path class="cls-20" d="M292,163l.81-1.81a13.31,13.31,0,0,0-3.22.46,16,16,0,0,0-7.6,5.27l9.82-3.77A1.25,1.25,0,0,1,292,163Z"/><path class="cls-20" d="M281,171.15c2.37,1.06,7.31,2.79,12,1.46a15.49,15.49,0,0,0,7-4.59L293,165.15l-.25,0-12.95,5-.17.31A15.8,15.8,0,0,0,281,171.15Z"/><path class="cls-20" d="M329.24,86.64a1.06,1.06,0,0,1-.51,1.37c2,2.79,6.37,3.75,10.44,2.1,4.5-1.82,6.88-6.14,5.32-9.65s-6.49-4.87-11-3c-4.07,1.65-6.4,5.34-5.65,8.63A1.15,1.15,0,0,1,329.24,86.64Z"/><path class="cls-20" d="M243.72,120.71l-.31.73,1.5.58,15-6.07c-1-.11-1.95-.27-2.67-.42Z"/><path class="cls-20" d="M300.59,99.44l28-11.37a.33.33,0,0,0,.1-.06,1.06,1.06,0,0,0,.51-1.37,1.15,1.15,0,0,0-1.39-.6l-.11,0L299.69,97.43l-.61,1.44Z"/><path class="cls-20" d="M297.46,100.71a1.24,1.24,0,0,1-.37-.06,1.12,1.12,0,0,1-.62-.59.53.53,0,0,1,0-.12s-.06-.07-.07-.11a1,1,0,0,1,0-.83,1,1,0,0,1,.2-.3l-20.7,8.39a20.06,20.06,0,0,1-1.85,3.13Z"/><path class="cls-20" d="M200.74,139.92l1.32-.53v-1.32a.5.5,0,0,1,1,0v0a22.08,22.08,0,0,1,1.88-2.24l-4,1.64.44,1A1.06,1.06,0,0,1,200.74,139.92Z"/><path class="cls-20" d="M199.76,139.89a1.09,1.09,0,0,1-.55-.55v0s0,0,0,.05A1.05,1.05,0,0,0,199.76,139.89Z"/><path class="cls-20" d="M240.89,122.77l-.47,1.07,1.36-.56a.91.91,0,0,1-.36-.06A1.12,1.12,0,0,1,240.89,122.77Z"/><path class="cls-20" d="M232.13,127.2l5.24-2.13,1.3-2.9-12.89,5.23A56.66,56.66,0,0,1,232.13,127.2Z"/><path class="cls-20" d="M296.37,99.83s.05.07.07.11a1,1,0,0,1,0-.71l.29-.68a.9.9,0,0,0-.19.15,1,1,0,0,0-.2.3A1,1,0,0,0,296.37,99.83Z"/><path class="cls-20" d="M298.59,100a1.12,1.12,0,0,1-.88.65l16.38,6.3a17.64,17.64,0,0,1-1-1.59s.48-.28,1.29-.66l-13.78-5.3-1.51-.57Z"/><path class="cls-20" d="M285.56,118c-.58-.85-.9-1.43-.9-1.43a15.86,15.86,0,0,1,1.42-.73L273.42,111a14.7,14.7,0,0,1-1.64,1.72Z"/><path class="cls-20" d="M242.91,122.61a1.12,1.12,0,0,1-.88.66l15.69,6c-.59-.85-.9-1.42-.9-1.42a15.86,15.86,0,0,1,1.42-.73L244.91,122l-1.5-.58Z"/><path class="cls-20" d="M296.44,99.94a.53.53,0,0,0,0,.12,1.12,1.12,0,0,0,.62.59,1.24,1.24,0,0,0,.37.06.71.71,0,0,0,.25,0,1.12,1.12,0,0,0,.88-.65l.49-1.17.61-1.44,5.55-13.13c-.85.29-1.39.42-1.39.42a15.74,15.74,0,0,1-.5-1.79l-6.6,15.62-.29.68A1,1,0,0,0,296.44,99.94Z"/><path class="cls-20" d="M275.24,94.88,271.79,103c.86.06,1.65.15,2.35.27L277.23,96c-.93.32-1.54.47-1.54.47A16.42,16.42,0,0,1,275.24,94.88Z"/><path class="cls-20" d="M247.85,107.77a2.42,2.42,0,0,1-.11-.33l-5.05,11.31,2.22-.86,4.48-10.59C248.45,107.63,247.85,107.77,247.85,107.77Z"/><path class="cls-20" d="M242.91,122.61l.5-1.17.31-.73-2.2.84-.16.18-.47,1a1.12,1.12,0,0,0,.53.45.91.91,0,0,0,.36.06,1,1,0,0,0,.25,0A1.12,1.12,0,0,0,242.91,122.61Z"/><path class="cls-20" d="M314.09,107c1.51,2.14,4.67,5.84,9.2,7,6.53,1.72,13.41-2.4,13.41-2.4s-3.69-6.9-10.21-8.62c-4.82-1.27-9.83.65-12.12,1.74-.81.38-1.29.66-1.29.66A17.64,17.64,0,0,0,314.09,107Z"/><path class="cls-20" d="M285.56,118c1.46,2.11,4.66,6,9.31,7.19,6.53,1.72,13.41-2.4,13.41-2.4s-3.69-6.91-10.21-8.62c-4.73-1.25-9.64.57-12,1.67a15.86,15.86,0,0,0-1.42.73S285,117.16,285.56,118Z"/><path class="cls-20" d="M257.72,129.29c1.45,2.11,4.66,6,9.31,7.2,6.52,1.71,13.41-2.4,13.41-2.4s-3.69-6.91-10.21-8.62c-4.73-1.25-9.64.57-12,1.67a15.86,15.86,0,0,0-1.42.73S257.13,128.44,257.72,129.29Z"/><path class="cls-20" d="M305.24,84.3c2.41-.81,7.34-2.92,9.72-7.11,3.23-5.67.56-13,.56-13s-7.88,1.87-11.11,7.54c-2.24,3.94-1.64,8.67-1.06,11.19a15.74,15.74,0,0,0,.5,1.79S304.39,84.59,305.24,84.3Z"/><path class="cls-20" d="M281,88a14.89,14.89,0,0,1-6.33,1.5,20.13,20.13,0,0,0,.56,5.35,16.42,16.42,0,0,0,.45,1.61s.61-.15,1.54-.47c2.45-.85,7.24-3,9.57-7.07a15,15,0,0,0,1.39-9.46C287.17,82,285,86,281,88Z"/><path class="cls-20" d="M287.37,76a20.16,20.16,0,0,0-2.16.69,24.6,24.6,0,0,1,2.5.46C287.52,76.39,287.37,76,287.37,76Z"/><path class="cls-20" d="M253,90.16l-.8.56.27.64Z"/><path class="cls-20" d="M251.11,94.11l-.77-1.82a11.9,11.9,0,0,0-1.93,2.5,14.57,14.57,0,0,0-1.46,8.84l4.14-9.29A1.79,1.79,0,0,1,251.11,94.11Z"/><path class="cls-20" d="M260.22,90a18.88,18.88,0,0,0-.7-2.78,22.37,22.37,0,0,0-3.28,1.15l-1.71,3.82Z"/><path class="cls-20" d="M249.39,107.3c2.45-.85,7.23-3,9.57-7.07a14.11,14.11,0,0,0,1.54-8L253.37,95a.73.73,0,0,1-.17.18l-5.46,12.24a2.42,2.42,0,0,0,.11.33S248.45,107.63,249.39,107.3Z"/><path class="cls-20" d="M220.76,15.06a1.06,1.06,0,0,1,.65,1.31c3.47.65,7.29-1.63,9-5.54,1.83-4.33.3-9-3.41-10.41s-8.2.92-10,5.25c-1.65,3.91-.56,8.08,2.41,9.9A1.17,1.17,0,0,1,220.76,15.06Z"/><path class="cls-20" d="M210,43.42l11.39-26.94s0-.07,0-.11a1.06,1.06,0,0,0-.65-1.31,1.17,1.17,0,0,0-1.43.51s-.05.06-.06.1L207.87,42.6l.64,1.42Z"/><path class="cls-20" d="M169.44,139.31l.53-1.26-1-.94a.45.45,0,0,1,0-.66.51.51,0,0,1,.69,0h0a19.12,19.12,0,0,1-.33-2.85l-1.64,3.88,1.08.43A1.08,1.08,0,0,1,169.44,139.31Z"/><path class="cls-20" d="M208.73,46.42a.92.92,0,0,1-.31.2,1.17,1.17,0,0,1-.88,0s-.07-.05-.11-.07l-.13,0a1.09,1.09,0,0,1-.62-.59,1.05,1.05,0,0,1-.08-.34l-8.41,19.88a20,20,0,0,1,1,3.45Z"/><path class="cls-20" d="M168.67,140a1.21,1.21,0,0,1-.75,0l0,0,0,0A1.25,1.25,0,0,0,168.67,140Z"/><path class="cls-20" d="M185.1,100.14l.46,1.07.55-1.31a1.38,1.38,0,0,1-.31.2A1.2,1.2,0,0,1,185.1,100.14Z"/><path class="cls-20" d="M185.57,96.77l.32.73,1.49-.61,6.08-14.37a22.34,22.34,0,0,1-2.2,1.5Z"/><path class="cls-20" d="M182.19,109.17l2.13-5-1.24-2.92-5.24,12.39A53,53,0,0,1,182.19,109.17Z"/><path class="cls-20" d="M207.3,46.54l.13,0a1.05,1.05,0,0,1-.51-.51l-.3-.68a1,1,0,0,0,0,.24,1.05,1.05,0,0,0,.08.34A1.09,1.09,0,0,0,207.3,46.54Z"/><path class="cls-20" d="M209,45.19a1,1,0,0,1-.14,1.05l16.25-6.59a16.43,16.43,0,0,1-1.88-.44,13.18,13.18,0,0,1,.41-1.33L210,43.42l-1.49.6Z"/><path class="cls-20" d="M213.15,66.67c-1.05-.21-1.7-.4-1.7-.4s.15-.59.47-1.48l-12.56,5.09a15,15,0,0,1,.12,2.33Z"/><path class="cls-20" d="M186.41,98.66a1.06,1.06,0,0,1-.14,1.06l15.56-6.31c-1-.21-1.69-.4-1.69-.4s.15-.59.47-1.48l-13.23,5.36-1.49.61Z"/><path class="cls-20" d="M207.43,46.56s.07.06.11.07a1.17,1.17,0,0,0,.88,0,.92.92,0,0,0,.31-.2.93.93,0,0,0,.16-.18,1,1,0,0,0,.14-1.05L208.51,44l-.64-1.42-5.81-13c-.39.77-.68,1.23-.68,1.23a16.71,16.71,0,0,1-1.68-.93l6.92,15.49.3.68A1.05,1.05,0,0,0,207.43,46.56Z"/><path class="cls-20" d="M188.68,57.27l3.62,8.09a23.2,23.2,0,0,1,1.86-1.4l-3.23-7.22a15.41,15.41,0,0,1-.73,1.36A16.93,16.93,0,0,1,188.68,57.27Z"/><path class="cls-20" d="M178.89,84.85l-.32-.16,4.81,11.39.94-2.1-4.69-10.5C179.21,84.33,178.89,84.85,178.89,84.85Z"/><path class="cls-20" d="M186.41,98.66l-.52-1.16-.32-.73-.93,2.07a1.94,1.94,0,0,1,0,.24l.44,1.06a1.2,1.2,0,0,0,.7,0,1.38,1.38,0,0,0,.31-.2l.16-.18A1.06,1.06,0,0,0,186.41,98.66Z"/><path class="cls-20" d="M225.14,39.65c2.66.51,7.64,1,11.73-1.22,5.89-3.18,7.7-10.73,7.7-10.73s-7.73-2.4-13.62.78c-4.35,2.35-6.47,7.09-7.28,9.4a13.18,13.18,0,0,0-.41,1.33A16.43,16.43,0,0,0,225.14,39.65Z"/><path class="cls-20" d="M213.15,66.67c2.6.51,7.72,1.08,11.92-1.19,5.89-3.18,7.7-10.73,7.7-10.73s-7.73-2.4-13.62.78c-4.27,2.31-6.39,6.91-7.23,9.26-.32.89-.47,1.48-.47,1.48S212.1,66.46,213.15,66.67Z"/><path class="cls-20" d="M201.83,93.41c2.6.51,7.73,1.08,11.93-1.19,5.89-3.18,7.7-10.73,7.7-10.73s-7.73-2.39-13.62.79c-4.27,2.3-6.39,6.89-7.23,9.25-.32.89-.47,1.48-.47,1.48S200.79,93.2,201.83,93.41Z"/><path class="cls-20" d="M202.06,29.58c1.1-2.2,3-7,1.58-11.58-1.92-6.19-9.24-9.57-9.24-9.57s-4.19,6.64-2.26,12.82c1.34,4.3,5.28,7.24,7.56,8.63a16.71,16.71,0,0,0,1.68.93S201.67,30.35,202.06,29.58Z"/><path class="cls-20" d="M187.68,48.54a13.52,13.52,0,0,1-3.36,5.33,22.12,22.12,0,0,0,4.36,3.4,16.93,16.93,0,0,0,1.52.83,15.41,15.41,0,0,0,.73-1.36c1.11-2.26,2.93-7,1.53-11.46-1.07-3.44-3.81-6-6-7.61C187.53,40.09,189,44.41,187.68,48.54Z"/><path class="cls-20" d="M183.22,35.72a18.77,18.77,0,0,0-1,2,23.91,23.91,0,0,1,2.11-1.37C183.65,35.92,183.22,35.72,183.22,35.72Z"/><path class="cls-20" d="M171.06,73l-1.9-.77a11.3,11.3,0,0,0,.49,3.07,15.26,15.26,0,0,0,5.53,7.24l-4-9.36A.69.69,0,0,1,171.06,73Z"/><path class="cls-20" d="M174.47,64a22,22,0,0,0-2.56-1.5,19.19,19.19,0,0,0-1.46,3l1.62,3.85Z"/><path class="cls-20" d="M169.43,68.94c-.06.31-.11.62-.15.94l.67.27Z"/><path class="cls-20" d="M179.63,83.48c1.1-2.26,2.92-7,1.52-11.45a14.75,14.75,0,0,0-4.81-6.67l-3,6.75a.89.89,0,0,1,0,.23l5.23,12.35.32.16S179.21,84.33,179.63,83.48Z"/><path class="cls-20" d="M277.71,37.54a1.07,1.07,0,0,1,.63,1.32c3.44.71,7.32-1.5,9.05-5.38,1.92-4.29.48-9-3.2-10.47s-8.21.77-10.13,5.07c-1.73,3.87-.72,8.07,2.21,9.94A1.17,1.17,0,0,1,277.71,37.54Z"/><path class="cls-20" d="M224.42,158.44a.48.48,0,0,1,.43.25l.37-.82-.82.57Z"/><path class="cls-20" d="M222.87,159.38l-1.07.58v0l0,0a1.11,1.11,0,0,0,0,.78s0,0,0,.06a.61.61,0,0,0,.1.14,1.09,1.09,0,0,0,.51.46h0a1.16,1.16,0,0,0,1.48-.58l.46-1,.21-.48a.7.7,0,0,1-.14,0Z"/><path class="cls-20" d="M235.74,128.72a47.68,47.68,0,0,1,.06,5.45l4.62-10.33.47-1.07.47-1a1.08,1.08,0,0,1-.31.19,1.21,1.21,0,0,1-.88,0s-.07,0-.11-.07l-.13,0a1.12,1.12,0,0,1-.61-.6,1.09,1.09,0,0,1-.07-.35l-.58,1.3-1.3,2.9Z"/><path class="cls-20" d="M266.38,65.69,278.31,39s0-.07,0-.11a1.07,1.07,0,0,0-.63-1.32,1.17,1.17,0,0,0-1.44.48s0,.06-.07.1L264.27,64.84l.61,1.43Z"/><path class="cls-20" d="M242.69,118.75l5.05-11.31L253.2,95.2a.89.89,0,0,1-.31.19,1.16,1.16,0,0,1-.88,0l-.1-.06s-.09,0-.13,0a1.14,1.14,0,0,1-.62-.6,1,1,0,0,1-.07-.35L247,103.63l-6.37,14.26.61,1.43Z"/><path class="cls-20" d="M253,92.8l1.5-.58,1.71-3.82,8.81-19.73a1.1,1.1,0,0,1-.31.2,1.21,1.21,0,0,1-.88,0l-.11-.07-.13,0a1,1,0,0,1-.68-1L253,90.16l-.53,1.2Z"/><path class="cls-20" d="M263.64,66.75l1.24-.48-.61-1.43-5.55-13.13c-.41.77-.7,1.22-.7,1.22a17.76,17.76,0,0,1-1.66-1L263,67.59A1.06,1.06,0,0,1,263.64,66.75Z"/><path class="cls-20" d="M263.75,68.79l.11.07a1.21,1.21,0,0,0,.88,0,1.1,1.1,0,0,0,.31-.2,1.29,1.29,0,0,0,.16-.17l-.71.27A1.14,1.14,0,0,1,263.75,68.79Z"/><path class="cls-20" d="M251.8,93.27,253,92.8l-.6-1.44-.27-.64-5.11-12.06a14.92,14.92,0,0,1-.76,1.35,16.2,16.2,0,0,1-1.5-.85l5.55,13.13.77,1.82A1.11,1.11,0,0,1,251.8,93.27Z"/><path class="cls-20" d="M252.65,95.3a1.25,1.25,0,0,1-.74,0l.1.06a1.16,1.16,0,0,0,.88,0,.89.89,0,0,0,.31-.19.73.73,0,0,0,.17-.18Z"/><path class="cls-20" d="M240,119.8l1.24-.48-.61-1.43-5.37-12.7c-.44.85-.77,1.35-.77,1.35a17.06,17.06,0,0,1-1.49-.85l6.32,15A1.06,1.06,0,0,1,240,119.8Z"/><path class="cls-20" d="M240.81,121.82a1.14,1.14,0,0,1-.75,0s.07.06.11.07a1.21,1.21,0,0,0,.88,0,1.08,1.08,0,0,0,.31-.19l.16-.18Z"/><path class="cls-20" d="M263.62,68.77l.13,0a1.14,1.14,0,0,0,.75,0l.71-.27,16.39-6.29a18.25,18.25,0,0,1-1.88-.48s.14-.52.44-1.33l-13.78,5.29-1.5.58-1.24.48a1.06,1.06,0,0,0-.68.84.86.86,0,0,0,0,.23,1,1,0,0,0,.68,1Z"/><path class="cls-20" d="M253,92.8l-1.23.47a1.11,1.11,0,0,0-.69.84,1.79,1.79,0,0,0,0,.23,1,1,0,0,0,.07.35,1.14,1.14,0,0,0,.62.6s.09,0,.13,0a1.25,1.25,0,0,0,.74,0l.72-.28,7.13-2.74L269.06,89c-1-.23-1.69-.44-1.69-.44s.16-.58.5-1.46L260.22,90l-5.69,2.19Z"/><path class="cls-20" d="M239.93,121.82l.13,0a1.14,1.14,0,0,0,.75,0l.71-.27,2.2-.84,13.49-5.18c-1-.23-1.68-.44-1.68-.44a14.75,14.75,0,0,1,.49-1.46l-11.11,4.26-2.22.86-1.5.57-1.24.48a1.06,1.06,0,0,0-.68.84,1.64,1.64,0,0,0,0,.23,1.09,1.09,0,0,0,.07.35A1.12,1.12,0,0,0,239.93,121.82Z"/><path class="cls-20" d="M258.72,51.71c1.14-2.18,3.15-7,1.82-11.55-1.81-6.22-9.05-9.73-9.05-9.73S247.17,37,249,43.21c1.25,4.32,5.13,7.33,7.39,8.76a17.76,17.76,0,0,0,1.66,1S258.31,52.48,258.72,51.71Z"/><path class="cls-20" d="M247.05,78.66c1.15-2.24,3.07-6.91,1.76-11.42-1.8-6.22-9.05-9.73-9.05-9.73s-4.32,6.56-2.52,12.77c1.29,4.44,5.33,7.49,7.55,8.88a16.2,16.2,0,0,0,1.5.85A14.92,14.92,0,0,0,247.05,78.66Z"/><path class="cls-20" d="M235.21,105.19c1.15-2.24,3.06-6.91,1.75-11.42-1.8-6.22-9.05-9.73-9.05-9.73s-4.32,6.56-2.52,12.78c1.29,4.43,5.34,7.48,7.56,8.87a17.06,17.06,0,0,0,1.49.85S234.77,106,235.21,105.19Z"/><path class="cls-20" d="M281.6,62.21c2.64.55,7.61,1.12,11.75-1,5.95-3.08,7.91-10.59,7.91-10.59s-7.68-2.54-13.63.53c-4.4,2.27-6.61,7-7.47,9.26-.3.81-.44,1.33-.44,1.33A18.25,18.25,0,0,0,281.6,62.21Z"/><path class="cls-20" d="M269.06,89a23.81,23.81,0,0,0,5.62.53A14.89,14.89,0,0,0,281,88c4-2,6.16-6.08,7.18-8.54a17.6,17.6,0,0,0,.73-2s-.45-.15-1.21-.33a24.6,24.6,0,0,0-2.5-.46A17.18,17.18,0,0,0,275.29,78c-4.32,2.23-6.53,6.79-7.42,9.13-.34.88-.5,1.46-.5,1.46S268,88.77,269.06,89Z"/><path class="cls-20" d="M263.44,104.5c-4.31,2.23-6.53,6.79-7.42,9.13a14.75,14.75,0,0,0-.49,1.46s.64.21,1.68.44c.72.15,1.63.31,2.67.42a16.74,16.74,0,0,0,9.28-1.39,12.46,12.46,0,0,0,2.62-1.85,14.7,14.7,0,0,0,1.64-1.72c.21-.26.4-.51.59-.77a20.06,20.06,0,0,0,1.85-3.13,19,19,0,0,0,1.21-3.12,21.58,21.58,0,0,0-2.93-.67c-.7-.12-1.49-.21-2.35-.27A16.16,16.16,0,0,0,263.44,104.5Z"/><path class="cls-20" d="M352.83,140.9a1.06,1.06,0,0,1-.54,1.36c1.91,2.83,6.3,3.87,10.4,2.29,4.54-1.74,7-6,5.51-9.55s-6.39-5-10.92-3.24c-4.11,1.57-6.51,5.22-5.83,8.52A1.16,1.16,0,0,1,352.83,140.9Z"/><path class="cls-20" d="M270.88,173.55l8.88-3.41,12.95-5a1.53,1.53,0,0,1-.36-.07,1.14,1.14,0,0,1-.62-.6s0-.08,0-.13-.06-.06-.07-.1a1.07,1.07,0,0,1,0-.84,1.54,1.54,0,0,1,.21-.29L282,166.91,267,172.7l-.38.85Z"/><path class="cls-20" d="M323.93,153.18l28.26-10.86a.33.33,0,0,0,.1-.06,1.06,1.06,0,0,0,.54-1.36,1.16,1.16,0,0,0-1.38-.62s-.07,0-.11,0l-28.27,10.85-.64,1.43Z"/><path class="cls-20" d="M294.38,163.35l1.49.61,4-1.56,20.86-8a1.09,1.09,0,0,1-1-.67s0-.08,0-.12a.41.41,0,0,1-.07-.11,1,1,0,0,1,0-.83,1.11,1.11,0,0,1,.22-.3l-23.64,9.08-1.27.49Z"/><path class="cls-20" d="M321.21,152.08l1.22.5.64-1.43,5.82-13c-.86.27-1.41.39-1.41.39a17.7,17.7,0,0,1-.46-1.79l-6.92,15.48A1.18,1.18,0,0,1,321.21,152.08Z"/><path class="cls-20" d="M319.77,153.6s0,.08,0,.12a1.09,1.09,0,0,0,1,.67,1,1,0,0,0,.25,0l-.71-.29A1.12,1.12,0,0,1,319.77,153.6Z"/><path class="cls-20" d="M293.15,162.86l1.23.49.63-1.42.28-.63,5.35-12c-.94.31-1.55.45-1.55.45a15.5,15.5,0,0,1-.42-1.62l-5.82,13L292,163A1.16,1.16,0,0,1,293.15,162.86Z"/><path class="cls-20" d="M292.25,164.87a1.1,1.1,0,0,1-.54-.5s0,.09,0,.13a1.14,1.14,0,0,0,.62.6,1.53,1.53,0,0,0,.36.07l.25,0Z"/><path class="cls-20" d="M267,172.7l5.63-12.6c-.94.31-1.55.45-1.55.45s-.21-.62-.43-1.62l-6.52,14.62h2.49Z"/><path class="cls-20" d="M319.7,153.49a.41.41,0,0,0,.07.11,1.12,1.12,0,0,0,.54.49l.71.29L337.27,161a16.84,16.84,0,0,1-1-1.6s.48-.28,1.3-.65l-13.67-5.54-1.5-.6-1.22-.5a1.18,1.18,0,0,0-1.11.13l-.18.15a1.11,1.11,0,0,0-.22.3A1,1,0,0,0,319.7,153.49Z"/><path class="cls-20" d="M294.38,163.35l-1.23-.49A1.16,1.16,0,0,0,292,163a1.25,1.25,0,0,0-.19.15,1.54,1.54,0,0,0-.21.29,1.07,1.07,0,0,0,0,.84s.05.07.07.1a1.1,1.1,0,0,0,.54.5l.71.28L300,168l8.49,3.44c-.57-.86-.87-1.44-.87-1.44s.54-.3,1.43-.7l-7.58-3.08L295.87,164Z"/><path class="cls-20" d="M328.89,138.13c2.42-.78,7.39-2.8,9.85-6.94,3.34-5.61.83-13,.83-13s-7.93,1.73-11.27,7.34c-2.32,3.9-1.81,8.64-1.28,11.18a17.7,17.7,0,0,0,.46,1.79S328,138.4,328.89,138.13Z"/><path class="cls-20" d="M300.64,149.32c2.47-.8,7.29-2.82,9.72-6.89,3.33-5.6.82-13,.82-13s-7.93,1.72-11.27,7.33c-2.38,4-1.78,8.89-1.24,11.36a15.5,15.5,0,0,0,.42,1.62S299.7,149.63,300.64,149.32Z"/><path class="cls-20" d="M272.58,160.1c2.47-.8,7.29-2.82,9.71-6.89,3.34-5.61.82-13,.82-13s-7.92,1.72-11.26,7.33c-2.38,4-1.78,8.89-1.25,11.36.22,1,.43,1.62.43,1.62S271.64,160.41,272.58,160.1Z"/><path class="cls-20" d="M337.27,161c1.47,2.17,4.55,5.92,9.06,7.2,6.49,1.84,13.46-2.16,13.46-2.16s-3.55-7-10-8.8c-4.79-1.36-9.84.47-12.15,1.51-.82.37-1.3.65-1.3.65A16.84,16.84,0,0,0,337.27,161Z"/><path class="cls-20" d="M308.53,171.46a21.4,21.4,0,0,0,1.57,2.09h19a16.4,16.4,0,0,0-7.95-5.69c-4.7-1.33-9.65.4-12,1.46-.89.4-1.43.7-1.43.7S308,170.6,308.53,171.46Z"/><path class="cls-20" d="M143.21,160.76a.45.45,0,0,1-.12-.47l-.87.33c.33,0,.67.09,1,.15Z"/><path class="cls-20" d="M145,161.14l1.19.31h.05a1.22,1.22,0,0,0,.54-.46,1.1,1.1,0,0,0,.09-.14.17.17,0,0,0,0-.07,1,1,0,0,0,0-.76l0,0a1.16,1.16,0,0,0-1.47-.57l-1.09.42-.5.19.12.07Z"/><path class="cls-20" d="M117.15,170.25l-8.6,3.3h5.15C114.53,172.68,115.7,171.52,117.15,170.25Z"/><path class="cls-20" d="M89,170.45s-.54.31-1.43.7l5.92,2.4h5.85L88.18,169C88.74,169.87,89,170.45,89,170.45Z"/><path class="cls-20" d="M39.69,173.55h14a13,13,0,0,0-2.7-1.13C46.7,171.22,42.26,172.51,39.69,173.55Z"/><path class="cls-20" d="M75.59,172.61c4.71,1.33,9.65-.4,12-1.46.89-.39,1.43-.7,1.43-.7s-.3-.58-.86-1.44a24.63,24.63,0,0,0-1.57-2.1,16.07,16.07,0,0,0-7.6-5.27,13.32,13.32,0,0,0-3.23-.46,16.35,16.35,0,0,0-2.44.12l-1,.14a24,24,0,0,0-3.63,1,22.37,22.37,0,0,0-3.17,1.4,19.74,19.74,0,0,0,1.57,2.44A20.83,20.83,0,0,0,68.6,168,15.43,15.43,0,0,0,75.59,172.61Z"/><path class="cls-20" d="M39.4,86.64a1.15,1.15,0,0,1,1.39-.6c.74-3.29-1.58-7-5.65-8.63-4.51-1.82-9.43-.46-11,3s.81,7.83,5.32,9.65c4.07,1.65,8.47.69,10.44-2.1A1.06,1.06,0,0,1,39.4,86.64Z"/><path class="cls-20" d="M166.28,137.41a.46.46,0,0,1,.27-.41l-.87-.35q.31.39.6.78Z"/><path class="cls-20" d="M135.1,126.63a55.08,55.08,0,0,1,5.71-.06L130,122.17l-1.12-.45-1.1-.45a1.25,1.25,0,0,1,.21.3,1.11,1.11,0,0,1,0,.84.7.7,0,0,1-.08.1s0,.09,0,.12a1.14,1.14,0,0,1-.63.59.93.93,0,0,1-.37.06l1.37.56,3,1.23Z"/><path class="cls-20" d="M167.27,138.89c.21.34.41.68.6,1h0l0,0a1.21,1.21,0,0,0,.75,0l.14,0,.06,0a1.09,1.09,0,0,0,.56-.54.09.09,0,0,1,0-.05,1.08,1.08,0,0,0-.62-1.39l-1.08-.43-.5-.21a.61.61,0,0,1,0,.13Z"/><path class="cls-20" d="M69,97.43,40.9,86.06l-.11,0a1.15,1.15,0,0,0-1.39.6A1.06,1.06,0,0,0,39.91,88a.47.47,0,0,0,.09.06L68.05,99.44l1.5-.57Z"/><path class="cls-20" d="M124.63,120l-11.87-4.81L99.91,110a1.19,1.19,0,0,1,.21.29,1.06,1.06,0,0,1,0,.84.76.76,0,0,1-.08.11s0,.08,0,.12a1.13,1.13,0,0,1-.63.58A1.16,1.16,0,0,1,99,112l9.75,4,15,6.07,1.5-.58Z"/><path class="cls-20" d="M97.39,110.15l-.6-1.43-4-1.63L72.07,98.7a1.08,1.08,0,0,1,.21.3,1,1,0,0,1,0,.83l-.07.11s0,.08,0,.12a1.07,1.07,0,0,1-1,.65l23.45,9.51,1.26.51Z"/><path class="cls-20" d="M70.05,100l-.5-1.17-1.5.57-13.78,5.3c.81.38,1.28.66,1.28.66a15.31,15.31,0,0,1-1,1.58l16.38-6.29A1.12,1.12,0,0,1,70.05,100Z"/><path class="cls-20" d="M72.2,99.94l.07-.11a1,1,0,0,0,0-.83,1.08,1.08,0,0,0-.21-.3.93.93,0,0,0-.18-.16l.29.69A1,1,0,0,1,72.2,99.94Z"/><path class="cls-20" d="M97.89,111.33l-.5-1.18-1.5.58-.67.26-12.67,4.86a15.86,15.86,0,0,1,1.42.73,16.14,16.14,0,0,1-.9,1.43l13.78-5.3,1.92-.73A1.11,1.11,0,0,1,97.89,111.33Z"/><path class="cls-20" d="M100,110.51a1,1,0,0,1,0,.72.76.76,0,0,0,.08-.11,1.06,1.06,0,0,0,0-.84,1.19,1.19,0,0,0-.21-.29,1.37,1.37,0,0,0-.18-.16Z"/><path class="cls-20" d="M125.73,122.61l-.5-1.17-1.5.58-13.34,5.12c.89.41,1.43.73,1.43.73s-.32.57-.9,1.42l15.69-6A1.12,1.12,0,0,1,125.73,122.61Z"/><path class="cls-20" d="M127.85,121.8a.92.92,0,0,1,0,.71.7.7,0,0,0,.08-.1,1.11,1.11,0,0,0,0-.84,1.25,1.25,0,0,0-.21-.3,1.3,1.3,0,0,0-.18-.15Z"/><path class="cls-20" d="M72.17,100.06s0-.08,0-.12a1,1,0,0,0,0-.71l-.29-.69-6.6-15.6c-.26,1.1-.5,1.78-.5,1.78s-.55-.13-1.4-.42L69,97.43l.6,1.44.5,1.17a1.12,1.12,0,0,0,.88.65.69.69,0,0,0,.25,0,1.07,1.07,0,0,0,1-.65Z"/><path class="cls-20" d="M97.39,110.15l.5,1.18a1.11,1.11,0,0,0,.88.65l.24,0a1.16,1.16,0,0,0,.37-.07,1.13,1.13,0,0,0,.63-.58s0-.08,0-.12a1,1,0,0,0,0-.72l-.28-.68L96.85,103,93.4,94.88A16.42,16.42,0,0,1,93,96.49s-.61-.15-1.54-.47l3.08,7.28,2.3,5.42Z"/><path class="cls-20" d="M127.85,122.63s0-.08,0-.12a.92.92,0,0,0,0-.71l-.28-.68-.89-2.09-5.43-12.86c-.24,1-.46,1.6-.46,1.6a15.46,15.46,0,0,1-1.54-.47l4.48,10.59.9,2.12.6,1.43.5,1.17a1.12,1.12,0,0,0,.88.66,1,1,0,0,0,.24,0,.93.93,0,0,0,.37-.06A1.14,1.14,0,0,0,127.85,122.63Z"/><path class="cls-20" d="M54.27,104.74c-2.29-1.09-7.3-3-12.12-1.74-6.52,1.72-10.21,8.62-10.21,8.62s6.88,4.12,13.4,2.4c4.54-1.19,7.7-4.89,9.21-7a15.31,15.31,0,0,0,1-1.58S55.08,105.12,54.27,104.74Z"/><path class="cls-20" d="M82.55,115.85c-2.34-1.1-7.25-2.92-12-1.67-6.53,1.71-10.21,8.62-10.21,8.62s6.88,4.12,13.4,2.4c4.65-1.22,7.85-5.08,9.31-7.19a16.14,16.14,0,0,0,.9-1.43A15.86,15.86,0,0,0,82.55,115.85Z"/><path class="cls-20" d="M110.39,127.14c-2.34-1.1-7.25-2.92-12-1.67-6.52,1.71-10.21,8.62-10.21,8.62s6.89,4.11,13.41,2.4c4.65-1.23,7.85-5.08,9.31-7.2.58-.85.9-1.42.9-1.42S111.28,127.55,110.39,127.14Z"/><path class="cls-20" d="M65.29,82.94c.57-2.53,1.18-7.26-1.06-11.2C61,66.07,53.11,64.2,53.11,64.2s-2.66,7.32.56,13c2.39,4.19,7.31,6.3,9.72,7.11.85.29,1.4.42,1.4.42S65,84,65.29,82.94Z"/><path class="cls-20" d="M93.4,94.88A20.56,20.56,0,0,0,94,89.53a13,13,0,0,0-1.58-6c-2.15-3.79-6.38-5.88-9-6.85A19.67,19.67,0,0,0,81.27,76s-.15.43-.34,1.15a21.9,21.9,0,0,0-.48,2.38A15,15,0,0,0,81.83,89C84.17,93.06,89,95.17,91.41,96c.93.32,1.54.47,1.54.47A16.42,16.42,0,0,0,93.4,94.88Z"/><path class="cls-20" d="M109.68,100.23c2.33,4.12,7.11,6.22,9.57,7.07a15.46,15.46,0,0,0,1.54.47s.22-.61.46-1.6a21.54,21.54,0,0,0,.44-2.54,14.57,14.57,0,0,0-1.46-8.84,11.9,11.9,0,0,0-1.93-2.5,16.63,16.63,0,0,0-1.82-1.57l-.8-.56a23.2,23.2,0,0,0-6.56-2.91,19.57,19.57,0,0,0-.71,2.78,21.92,21.92,0,0,0-.28,2.25A14,14,0,0,0,109.68,100.23Z"/><path class="cls-20" d="M147.88,15.06a1.18,1.18,0,0,1,1.43.51c3-1.82,4.06-6,2.4-9.9-1.83-4.33-6.31-6.68-10-5.25s-5.24,6.08-3.41,10.41c1.65,3.91,5.48,6.19,8.94,5.54A1.07,1.07,0,0,1,147.88,15.06Z"/><path class="cls-20" d="M199.92,136.45a.51.51,0,0,1,.5-.11l-.36-.83c0,.32-.09.64-.15,1Z"/><path class="cls-20" d="M199.52,138.16c-.1.38-.21.76-.33,1.13v.05a1.09,1.09,0,0,0,.55.55.18.18,0,0,0,.07.05.61.61,0,0,0,.13,0,1.25,1.25,0,0,0,.74,0l0,0a1.06,1.06,0,0,0,.6-1.39l-.44-1-.21-.49a.41.41,0,0,1-.07.11Z"/><path class="cls-20" d="M160.77,42.6l-11.4-26.93s-.05-.06-.06-.1a1.18,1.18,0,0,0-1.43-.51,1.07,1.07,0,0,0-.66,1.31s0,.08,0,.11l11.4,26.94,1.49.6Z"/><path class="cls-20" d="M183.38,96.08l-4.81-11.39-5.23-12.35a.84.84,0,0,1-.07.35,1.14,1.14,0,0,1-.63.59l-.13,0-.11.07a1.22,1.22,0,0,1-.88,0,1,1,0,0,1-.3-.2l4,9.36,6.08,14.37,1.49.61Z"/><path class="cls-20" d="M185.88,107.82a51.3,51.3,0,0,1,4.08,3.8l-4.4-10.41-.46-1.07-.44-1.06a1.47,1.47,0,0,1-.08.35,1.09,1.09,0,0,1-.63.58.5.5,0,0,1-.13,0l-.11.07a1.22,1.22,0,0,1-.88,0,1.31,1.31,0,0,1-.3-.2l.55,1.31,1.24,2.92Z"/><path class="cls-20" d="M171.44,70.76l.63-1.42-1.62-3.85L162,45.61A1.05,1.05,0,0,1,162,46a1.08,1.08,0,0,1-.63.59l-.12,0s-.07.06-.12.07a1.17,1.17,0,0,1-.88,0,1,1,0,0,1-.3-.2l9.52,22.52.52,1.21Z"/><path class="cls-20" d="M159.61,45.19l.52-1.17-1.49-.6L145,37.88c.28.81.41,1.33.41,1.33a16.43,16.43,0,0,1-1.88.44l16.25,6.6A1.06,1.06,0,0,1,159.61,45.19Z"/><path class="cls-20" d="M161.21,46.56l.12,0A1.08,1.08,0,0,0,162,46a1.05,1.05,0,0,0,.08-.34,1.94,1.94,0,0,0,0-.24l-.3.68A1.1,1.1,0,0,1,161.21,46.56Z"/><path class="cls-20" d="M170.92,71.93l.52-1.17L170,70.15l-.67-.27-12.56-5.09a15.3,15.3,0,0,1,.46,1.48s-.65.19-1.69.4l13.67,5.54,1.9.77A1,1,0,0,1,170.92,71.93Z"/><path class="cls-20" d="M173,72.78a1.09,1.09,0,0,1-.52.52l.13,0a1.14,1.14,0,0,0,.63-.59.84.84,0,0,0,.07-.35.89.89,0,0,0,0-.23Z"/><path class="cls-20" d="M182.23,98.66l.52-1.16-1.49-.61L168,91.53a15.3,15.3,0,0,1,.46,1.48s-.64.19-1.68.4l15.56,6.31A1,1,0,0,1,182.23,98.66Z"/><path class="cls-20" d="M184.34,99.52a1.14,1.14,0,0,1-.52.52.5.5,0,0,0,.13,0,1.09,1.09,0,0,0,.63-.58,1.47,1.47,0,0,0,.08-.35,1.94,1.94,0,0,0,0-.24Z"/><path class="cls-20" d="M161.09,46.63s.08-.05.12-.07a1.1,1.1,0,0,0,.51-.51l.3-.68,6.92-15.48a17,17,0,0,1-1.69.92s-.28-.46-.67-1.23l-5.81,13L160.13,44l-.52,1.17a1.06,1.06,0,0,0,.14,1.06,1.29,1.29,0,0,0,.16.17,1,1,0,0,0,.3.2A1.17,1.17,0,0,0,161.09,46.63Z"/><path class="cls-20" d="M171.44,70.76l-.52,1.17a1,1,0,0,0,.14,1,.69.69,0,0,0,.16.18,1,1,0,0,0,.3.2,1.22,1.22,0,0,0,.88,0l.11-.07a1.09,1.09,0,0,0,.52-.52l.3-.67,3-6.75L180,57.27a16.14,16.14,0,0,1-1.51.83s-.32-.51-.74-1.36L174.47,64l-2.4,5.38Z"/><path class="cls-20" d="M183.71,100.11l.11-.07a1.14,1.14,0,0,0,.52-.52l.3-.68.93-2.07L191.26,84c-.9.54-1.51.83-1.51.83s-.32-.52-.74-1.37L184.32,94l-.94,2.1-.63,1.42-.52,1.16a1,1,0,0,0,.14,1.06,1.29,1.29,0,0,0,.16.18,1.31,1.31,0,0,0,.3.2A1.22,1.22,0,0,0,183.71,100.11Z"/><path class="cls-20" d="M145,37.88c-.81-2.32-2.94-7.05-7.29-9.4-5.88-3.18-13.61-.78-13.61-.78s1.81,7.55,7.69,10.73c4.1,2.21,9.08,1.73,11.74,1.22a16.43,16.43,0,0,0,1.88-.44S145.25,38.69,145,37.88Z"/><path class="cls-20" d="M156.72,64.79c-.85-2.35-3-7-7.23-9.26-5.89-3.18-13.62-.78-13.62-.78s1.81,7.55,7.7,10.73c4.19,2.27,9.32,1.7,11.92,1.19,1-.21,1.69-.4,1.69-.4A15.3,15.3,0,0,0,156.72,64.79Z"/><path class="cls-20" d="M168,91.53c-.85-2.36-3-7-7.23-9.25-5.89-3.18-13.62-.79-13.62-.79S149,89,154.88,92.22c4.2,2.27,9.33,1.7,11.93,1.19,1-.21,1.68-.4,1.68-.4A15.3,15.3,0,0,0,168,91.53Z"/><path class="cls-20" d="M168.94,29.89c2.28-1.4,6.22-4.34,7.56-8.64,1.92-6.18-2.26-12.82-2.26-12.82S166.92,11.81,165,18c-1.42,4.56.49,9.38,1.59,11.58.39.77.67,1.23.67,1.23A17,17,0,0,0,168.94,29.89Z"/><path class="cls-20" d="M180,57.27a22.14,22.14,0,0,0,4.37-3.4,13.52,13.52,0,0,0,3.36-5.33c1.29-4.13-.15-8.45-1.25-10.87a18.77,18.77,0,0,0-1-2s-.43.2-1.1.58a23.91,23.91,0,0,0-2.11,1.37c-2.22,1.6-5,4.17-6,7.61-1.4,4.49.42,9.2,1.52,11.46.42.85.74,1.36.74,1.36A16.14,16.14,0,0,0,180,57.27Z"/><path class="cls-20" d="M187.49,72c-1.4,4.48.42,9.19,1.52,11.45.42.85.74,1.37.74,1.37s.61-.29,1.51-.83a22.34,22.34,0,0,0,2.2-1.5A15.26,15.26,0,0,0,199,75.28a11.3,11.3,0,0,0,.49-3.07,15,15,0,0,0-.12-2.33c0-.31-.1-.63-.16-.94a20,20,0,0,0-1-3.45,20.32,20.32,0,0,0-1.46-3,21.53,21.53,0,0,0-2.57,1.5,23.2,23.2,0,0,0-1.86,1.4A14.7,14.7,0,0,0,187.49,72Z"/><path class="cls-20" d="M172,161.87l0,0c.26-3.46.53-13.69-4.12-22-.19-.35-.39-.69-.6-1v19.16l3.76,3.59A1,1,0,0,1,172,161.87Z"/><path class="cls-20" d="M170.34,162.31l-3.77-3.59H146.46c8.86,5,20.34,4.76,24.14,4.5l0,0A.86.86,0,0,1,170.34,162.31Z"/><path class="cls-20" d="M133.65,127.35c-.06.56-.12,1.5-.16,2.72a49.9,49.9,0,0,0,.22,6.05c0,.34.07.69.11,1H144Z"/><path class="cls-20" d="M165.58,157.78l-6-5.71H139.05a22.8,22.8,0,0,0,2.81,3.28c.23.22.47.42.71.63a21.33,21.33,0,0,0,2.36,1.8Z"/><path class="cls-20" d="M144.93,138.1h-11a39,39,0,0,0,1.43,6.36h16.24Z"/><path class="cls-20" d="M152.59,145.4H135.68a28.1,28.1,0,0,0,2.74,5.73H158.6Z"/><path class="cls-20" d="M152.3,143.8V128.47a.58.58,0,0,1,0-.14,43.53,43.53,0,0,0-6.7-1.36v10.47Z"/><path class="cls-20" d="M166.28,157.11V137.43q-.28-.39-.6-.78a21.13,21.13,0,0,0-5.39-4.81V151.4Z"/><path class="cls-20" d="M159.3,150.46V131.23a31,31,0,0,0-6-2.61v16.11Z"/><path class="cls-20" d="M135.1,126.63l-.76.05,10.3,9.82v-9.65c-1.35-.15-2.64-.24-3.83-.28A55.08,55.08,0,0,0,135.1,126.63Z"/><path class="cls-20" d="M172,161.87a1,1,0,0,0-.94-.23l.59.56a.45.45,0,0,1,0,.67.51.51,0,0,1-.69,0l-.59-.56a.86.86,0,0,0,.24.89l0,0,8.7,8.29h0c1,1,3.59,4.1,3.3,2.5l.24-.45v-1.32L172,161.89Z"/><path class="cls-20" d="M146.19,161.45l-1.19-.31,13,12.41h6.76C161.9,170.51,154.92,164,146.19,161.45Z"/><path class="cls-20" d="M113.7,173.55H126l-6-5.68c-1.07.81-2,1.61-2.92,2.38C115.7,171.52,114.53,172.68,113.7,173.55Z"/><path class="cls-20" d="M136.87,173.55l-10.19-9.7a.83.83,0,0,1-.08-.12,43.84,43.84,0,0,0-5.75,3.55l6.58,6.27Z"/><path class="cls-20" d="M156.64,173.55l-13.42-12.78c-.33-.06-.67-.11-1-.15a24.42,24.42,0,0,0-3-.19,23.91,23.91,0,0,0-4.42.42l13.33,12.7Z"/><path class="cls-20" d="M146.77,173.55l-13.08-12.46a31.22,31.22,0,0,0-6.2,2.2l10.77,10.26Z"/><path class="cls-20" d="M187.25,170.84l-1.46,1.39v1.32l2.85-2.71A1,1,0,0,0,187.25,170.84Z"/><path class="cls-20" d="M182.84,170.27v3.28h1v-4.22A1,1,0,0,0,182.84,170.27Z"/><path class="cls-20" d="M204.76,173.55h6.83l12-11.48C215.18,164.12,208.21,170.1,204.76,173.55Z"/><path class="cls-20" d="M213,173.55h8.48l12.35-11.77a24.89,24.89,0,0,0-4.42-.42c-.33,0-.65,0-1,0a24.62,24.62,0,0,0-3,.31Z"/><path class="cls-20" d="M242.19,173.55l5.6-5.33a42.51,42.51,0,0,0-5.73-3.54l-9.31,8.87Z"/><path class="cls-20" d="M231.36,173.55l9.78-9.33A31.13,31.13,0,0,0,235,162l-12.1,11.53Z"/><path class="cls-20" d="M254,173.55a54.06,54.06,0,0,0-4.6-4.09l-.85-.66-5,4.75Z"/><path class="cls-20" d="M202.06,139.55c-5.27,8.44-5,19.39-4.73,23l0,0a1,1,0,0,1,.94-.23l3.76-3.59Z"/><path class="cls-20" d="M198.75,163.86l0,0c3.64.25,14.37.5,23.07-3.92l1.07-.58H202.76L199,163A.87.87,0,0,1,198.75,163.86Z"/><path class="cls-20" d="M223.7,138.1V127.63A44.32,44.32,0,0,0,217,129v15.48Z"/><path class="cls-20" d="M235,127.34c-.59,0-1.58-.11-2.86-.14a56.66,56.66,0,0,0-6.35.2l-1.1.11v9.65Z"/><path class="cls-20" d="M203.05,157.77l6-5.71V132.5a22.5,22.5,0,0,0-3.44,2.67c-.23.22-.45.45-.67.68a22.08,22.08,0,0,0-1.88,2.24Z"/><path class="cls-20" d="M216,145.39V129.28a30.37,30.37,0,0,0-6,2.61v19.23Z"/><path class="cls-20" d="M203.74,158.44H224.4l.82-.57a22.08,22.08,0,0,0,2.25-1.87,21.54,21.54,0,0,0,2.8-3.27H209.74Z"/><path class="cls-20" d="M210.72,151.79h20.19a28.63,28.63,0,0,0,2.74-5.73H216.74Z"/><path class="cls-20" d="M217.72,145.12h16.09a.32.32,0,0,1,.14,0,39.36,39.36,0,0,0,1.44-6.39h-11Z"/><path class="cls-20" d="M235.74,128.72c0-.28,0-.52-.06-.71l-10.3,9.81h10.13c.15-1.29.25-2.52.29-3.65A47.68,47.68,0,0,0,235.74,128.72Z"/><path class="cls-20" d="M198.75,163.86a.87.87,0,0,0,.24-.9l-.59.57a.51.51,0,0,1-.69,0,.45.45,0,0,1,0-.67l.59-.56a1,1,0,0,0-.94.23l0,0-8.69,8.29-2.85,2.71h2.79l10.15-9.67Z"/><path class="cls-20" d="M185.79,157.58v0c2.76-2.28,10.54-9.33,13.4-18.32.12-.37.23-.75.33-1.13L185.3,151.71v5.08A.91.91,0,0,1,185.79,157.58Z"/><path class="cls-20" d="M170.1,138.16c2.53,9.52,10.85,17.08,13.72,19.45v0a.93.93,0,0,1,.49-.79v-5.08Z"/><path class="cls-20" d="M184.31,107.35c-.45.36-1.19,1-2.12,1.82a53,53,0,0,0-4.35,4.43q-.34.39-.69.81l7.16,6.82Z"/><path class="cls-20" d="M184.31,132.87l-11.95-11.39a28,28,0,0,0-2.32,5.9L184.31,141Z"/><path class="cls-20" d="M184.31,122.55l-7.77-7.4a42.08,42.08,0,0,0-3.71,5.46l11.48,10.94Z"/><path class="cls-20" d="M184.31,150.38v-8.07l-14.52-13.84a21,21,0,0,0-.44,4.21q0,.47,0,.93a19.12,19.12,0,0,0,.33,2.85Z"/><path class="cls-20" d="M185.3,131.55l11.38-10.84a.25.25,0,0,1,.12-.08,39.87,39.87,0,0,0-3.73-5.48l-7.77,7.41Z"/><path class="cls-20" d="M185.3,150.38l14.61-13.92c.06-.31.11-.63.15-1a20.38,20.38,0,0,0,.21-2.83,21,21,0,0,0-.45-4.21L185.3,142.31Z"/><path class="cls-20" d="M185.3,141l14.27-13.6a27.41,27.41,0,0,0-2.31-5.9l-12,11.39Z"/><path class="cls-20" d="M185.88,107.82l-.58-.47v13.88l7.16-6.83c-.85-1-1.69-1.94-2.5-2.78A51.3,51.3,0,0,0,185.88,107.82Z"/><path class="cls-20" d="M185.79,157.61v0a.91.91,0,0,0-.49-.79v.79a.48.48,0,0,1-.49.47.49.49,0,0,1-.5-.47v-.79a.93.93,0,0,0-.49.79v16h2V157.61Z"/><path class="cls-20" d="M257.57,141.87c-.79-1.33-3.43-.38-5.91,2.11s-3.74,5.33-3.15,6.73a1,1,0,0,0,0,.25,1.35,1.35,0,0,0,.08.24c.09,1.51,2.62,3.63,5.84,4.84s6.17,1.05,6.29-.46c.1-1.11-1.27-2.61-3.32-3.82,1.84-.87,3-2.12,2.71-3.24s-1.84-1.81-3.9-1.85C257.56,144.74,258.14,142.83,257.57,141.87Z"/><path class="cls-20" d="M107.47,150.15c-.42,1.46,2.15,2.57,5.75,2.48s6.6-1.25,7.23-2.64a1.45,1.45,0,0,0,.28-.42c1-1.12.83-4.33-.54-7.35s-3.58-4.91-4.79-3.92c-.89.72-1,2.7-.49,4.94-2-.63-3.67-.5-4.32.47s0,2.52,1.38,3.93C109.61,148.12,107.78,149.08,107.47,150.15Z"/><path class="cls-20" d="M158.18,114.47l.26,0a1.17,1.17,0,0,0,.25-.07c1.58-.08,3.8-2.5,5.07-5.57s1.11-5.88-.48-6c-1.16-.08-2.73,1.22-4,3.18-.91-1.76-2.23-2.83-3.4-2.59s-1.9,1.75-1.94,3.71c-2-1.25-4-1.8-5-1.26-1.39.75-.4,3.27,2.22,5.63S156.7,115,158.18,114.47Z"/><path class="cls-20" d="M217.81,105.37c-1-.61-2.64,0-4.12,1.32-.5-2.25-1.51-4-2.63-4.29-1.54-.4-2.7,2-2.61,5.48s1.31,6.29,2.77,6.89l.21.15.23.11c1.18,1,4.55.8,7.72-.51s5.14-3.41,4.11-4.57c-.76-.84-2.83-1-5.19-.46C219,107.64,218.83,106,217.81,105.37Z"/></g></g></svg>