<svg xmlns="http://www.w3.org/2000/svg" xmlns:xlink="http://www.w3.org/1999/xlink" viewBox="0 0 257.11 257.11"><defs><style>.cls-1{fill:none;}.cls-2{clip-path:url(#clip-path);}.cls-3{fill:#fff;}.cls-4{font-size:16px;fill:#706f6f;font-family:GillSans-Light, Gill Sans;}</style><clipPath id="clip-path" transform="translate(-79.29 -54.77)"><rect class="cls-1" width="414.85" height="365.67"/></clipPath></defs><title>Element 1</title><g id="Ebene_2" data-name="Ebene 2"><g id="Ebene_1-2" data-name="Ebene 1"><g class="cls-2"><path class="cls-3" d="M254,234.14c-21,0-33.82-10.31-43-23.09a188.28,188.28,0,0,0,11.36-20.46l.79-1.55c8,14.56,15.7,23.15,30.84,23.15a28.87,28.87,0,0,0,0-57.73h0c-18.53,0-25.88,12.84-36.35,33.77-10.23,20.46-23,45.91-56,45.91a50.82,50.82,0,0,1,0-101.64c21,0,33.82,10.31,43,23.08a191.87,191.87,0,0,0-11.35,20.47l-.79,1.56c-8-14.57-15.7-23.15-30.85-23.15a28.87,28.87,0,0,0,0,57.73h0c18.53,0,25.89-12.84,36.36-33.78,10.23-20.45,22.95-45.9,56-45.9h0a50.82,50.82,0,1,1,0,101.64M207.85,54.77C137,54.77,79.29,112.44,79.29,183.32a128.56,128.56,0,0,0,257.12,0c0-70.88-57.67-128.55-128.56-128.55" transform="translate(-79.29 -54.77)"/></g><text class="cls-4" transform="translate(77.83 211.12)">Hannah &amp; Philip</text></g></g></svg>