<svg xmlns="http://www.w3.org/2000/svg" viewBox="0 0 396.85 360"><defs><style>.cls-1{fill:#8bcbb7;}.cls-2{fill:#fce5f1;}.cls-3{fill:#c0e1d7;}.cls-4{fill:#fbdbe3;}.cls-5{fill:#f298be;}.cls-6{fill:#f9d2de;}.cls-7{fill:#c4db9b;}.cls-8{fill:#fdeef6;}.cls-9{fill:#e3edc6;}.cls-10{fill:#efeea7;}.cls-11{fill:#d6ebe2;}.cls-12{fill:#cee2b0;}.cls-13{fill:#d5c9b6;}.cls-14{fill:#a5d7d5;}.cls-15{fill:#fadceb;}.cls-16{fill:#89ccca;}.cls-17{fill:#d6d9be;}.cls-18{fill:#f3ecc3;}.cls-19{fill:#b3bfc5;}.cls-20{fill:#31b7bc;}.cls-21{fill:#fed27a;}.cls-22{fill:#e0dfd1;}.cls-23{fill:#fde2cf;}.cls-24{fill:#daacd1;}.cls-25{fill:#b7dfe3;}.cls-26{fill:#f9d3e6;}.cls-27{fill:#ebe1bf;}.cls-28{fill:#e1e7d5;}.cls-29{fill:#f6eecd;}.cls-30{fill:#77c8d2;}.cls-31{fill:#88cdd3;}.cls-32{fill:#e4ebb1;}.cls-33{fill:#fffbdc;}.cls-34{fill:#f8c8d0;}.cls-35{fill:#f3e9ed;}.cls-36{fill:#6bb5b8;}.cls-37{fill:#45a6b2;}.cls-38{fill:#edf2d0;}.cls-39{fill:#dbe390;}.cls-40{fill:#fbee66;}.cls-41{fill:#f7f6d1;}.cls-42{fill:#feead3;}</style></defs><title>Element 2</title><g id="Ebene_2" data-name="Ebene 2"><g id="Ebene_1-2" data-name="Ebene 1"><polygon class="cls-1" points="39.69 360 79.37 360 79.37 334.29 39.69 360"/><polygon class="cls-1" points="119.06 360 158.74 360 158.74 334.29 119.06 360"/><polygon class="cls-1" points="198.43 360 238.11 360 238.11 334.29 198.43 360"/><polygon class="cls-1" points="277.8 360 317.48 360 317.48 334.29 277.8 360"/><polygon class="cls-1" points="357.17 360 396.85 360 396.85 334.29 357.17 360"/><polygon class="cls-2" points="79.37 360 119.06 360 79.37 334.29 79.37 360"/><polygon class="cls-3" points="158.74 360 198.43 360 158.74 334.29 158.74 360"/><polygon class="cls-4" points="238.11 360 277.8 360 238.11 334.29 238.11 360"/><polygon class="cls-5" points="317.48 360 357.17 360 317.48 334.29 317.48 360"/><polygon class="cls-6" points="79.37 77.14 119.06 51.43 79.37 25.72 79.37 77.14"/><polygon class="cls-7" points="158.74 77.14 198.43 51.43 158.74 25.72 158.74 77.14"/><polygon class="cls-8" points="238.11 77.14 277.8 51.43 238.11 25.72 238.11 77.14"/><polygon class="cls-1" points="317.48 77.14 357.17 51.43 317.48 25.72 317.48 77.14"/><polygon class="cls-9" points="277.8 0 317.48 25.71 317.48 0 277.8 0"/><polygon class="cls-2" points="79.37 0 79.37 25.71 119.06 0 79.37 0"/><polygon class="cls-3" points="158.74 0 158.74 25.71 198.43 0 158.74 0"/><polygon class="cls-4" points="238.11 0 238.11 25.71 277.8 0 238.11 0"/><polygon class="cls-5" points="317.48 0 317.48 25.71 357.17 0 317.48 0"/><polygon class="cls-1" points="158.74 128.57 119.06 102.86 158.74 77.14 158.74 128.57"/><polygon class="cls-1" points="238.11 128.57 198.43 102.86 238.11 77.14 238.11 128.57"/><polygon class="cls-1" points="317.48 128.57 277.8 102.86 317.48 77.14 317.48 128.57"/><polygon class="cls-9" points="79.37 128.57 119.06 102.86 79.37 77.14 79.37 128.57"/><polygon class="cls-10" points="158.74 128.57 198.43 102.86 158.74 77.14 158.74 128.57"/><polygon class="cls-11" points="238.11 128.57 277.8 102.86 238.11 77.14 238.11 128.57"/><polygon class="cls-12" points="317.48 128.57 357.17 102.86 317.48 77.14 317.48 128.57"/><polygon class="cls-1" points="79.37 180 39.69 154.29 79.37 128.57 79.37 180"/><polygon class="cls-1" points="158.74 180 119.06 154.29 158.74 128.57 158.74 180"/><polygon class="cls-1" points="238.11 180 198.43 154.29 238.11 128.57 238.11 180"/><polygon class="cls-1" points="317.48 180 277.8 154.29 317.48 128.57 317.48 180"/><polygon class="cls-11" points="79.37 180 119.06 154.29 79.37 128.57 79.37 180"/><polygon class="cls-11" points="158.74 180 198.43 154.29 158.74 128.57 158.74 180"/><polygon class="cls-13" points="238.11 180 277.8 154.29 238.11 128.57 238.11 180"/><polygon class="cls-6" points="317.48 180 357.17 154.29 317.48 128.57 317.48 180"/><polygon class="cls-1" points="79.37 231.43 39.69 205.71 79.37 180 79.37 231.43"/><polygon class="cls-1" points="158.74 231.43 119.06 205.71 158.74 180 158.74 231.43"/><polygon class="cls-1" points="238.11 231.43 198.43 205.71 238.11 180 238.11 231.43"/><polygon class="cls-1" points="317.48 231.43 277.8 205.71 317.48 180 317.48 231.43"/><polygon class="cls-14" points="79.37 231.43 119.06 205.71 79.37 180 79.37 231.43"/><polygon class="cls-15" points="158.74 231.43 198.43 205.71 158.74 180 158.74 231.43"/><polygon class="cls-16" points="238.11 231.43 277.8 205.71 238.11 180 238.11 231.43"/><polygon class="cls-17" points="317.48 231.43 357.17 205.71 317.48 180 317.48 231.43"/><polygon class="cls-1" points="79.37 282.86 39.69 257.14 79.37 231.43 79.37 282.86"/><polygon class="cls-1" points="158.74 282.86 119.06 257.14 158.74 231.43 158.74 282.86"/><polygon class="cls-1" points="238.11 282.86 198.43 257.14 238.11 231.43 238.11 282.86"/><polygon class="cls-1" points="317.48 282.86 277.8 257.14 317.48 231.43 317.48 282.86"/><polygon class="cls-13" points="79.37 282.86 119.06 257.14 79.37 231.43 79.37 282.86"/><polygon class="cls-18" points="158.74 282.86 198.43 257.14 158.74 231.43 158.74 282.86"/><polygon class="cls-19" points="238.11 282.86 277.8 257.14 238.11 231.43 238.11 282.86"/><polygon class="cls-9" points="317.48 282.86 357.17 257.14 317.48 231.43 317.48 282.86"/><polygon class="cls-1" points="79.37 334.29 39.69 308.57 79.37 282.86 79.37 334.29"/><polygon class="cls-1" points="158.74 334.29 119.06 308.57 158.74 282.86 158.74 334.29"/><polygon class="cls-1" points="238.11 334.29 198.43 308.57 238.11 282.86 238.11 334.29"/><polygon class="cls-1" points="317.48 334.29 277.8 308.57 317.48 282.86 317.48 334.29"/><polygon class="cls-7" points="79.37 334.29 119.06 308.57 79.37 282.86 79.37 334.29"/><polygon class="cls-5" points="158.74 334.29 198.43 308.57 158.74 282.86 158.74 334.29"/><polygon class="cls-12" points="238.11 334.29 277.8 308.57 238.11 282.86 238.11 334.29"/><polygon class="cls-7" points="317.48 334.29 357.17 308.57 317.48 282.86 317.48 334.29"/><polygon class="cls-10" points="0 360 39.69 360 0 334.29 0 360"/><polygon class="cls-1" points="39.69 360 79.37 360 79.37 334.29 39.69 360"/><polygon class="cls-9" points="119.06 360 158.74 360 158.74 334.29 119.06 360"/><polygon class="cls-1" points="198.43 360 238.11 360 238.11 334.29 198.43 360"/><polygon class="cls-9" points="277.8 360 317.48 360 317.48 334.29 277.8 360"/><polygon class="cls-20" points="357.17 360 396.85 360 396.85 334.29 357.17 360"/><polygon class="cls-1" points="0 77.14 39.69 51.43 0 25.71 0 77.14"/><polygon class="cls-13" points="79.37 77.14 39.69 51.43 79.37 25.72 79.37 77.14"/><polygon class="cls-21" points="158.74 77.14 119.06 51.43 158.74 25.72 158.74 77.14"/><polygon class="cls-3" points="238.11 77.14 198.43 51.43 238.11 25.72 238.11 77.14"/><polygon class="cls-22" points="317.48 77.14 277.8 51.43 317.48 25.72 317.48 77.14"/><polygon class="cls-21" points="357.17 51.43 396.85 77.14 396.85 25.71 357.17 51.43"/><polygon class="cls-10" points="0 0 0 25.71 39.69 0 0 0"/><polygon class="cls-1" points="39.69 0 79.37 25.71 79.37 0 39.69 0"/><polygon class="cls-9" points="119.06 0 158.74 25.71 158.74 0 119.06 0"/><polygon class="cls-1" points="198.43 0 238.11 25.71 238.11 0 198.43 0"/><polygon class="cls-20" points="357.17 0 396.85 25.71 396.85 0 357.17 0"/><polygon class="cls-21" points="0 128.57 39.69 102.86 0 77.14 0 128.57"/><polygon class="cls-20" points="79.37 128.57 39.69 102.86 79.37 77.14 79.37 128.57"/><polygon class="cls-3" points="158.74 128.57 119.06 102.86 158.74 77.14 158.74 128.57"/><polygon class="cls-10" points="238.11 128.57 198.43 102.86 238.11 77.14 238.11 128.57"/><polygon class="cls-23" points="317.48 128.57 277.8 102.86 317.48 77.14 317.48 128.57"/><polygon class="cls-24" points="357.17 102.86 396.85 128.57 396.85 77.14 357.17 102.86"/><polygon class="cls-25" points="0 180 39.69 154.28 0 128.57 0 180"/><polygon class="cls-26" points="79.37 180 39.69 154.29 79.37 128.57 79.37 180"/><polygon class="cls-27" points="158.74 180 119.06 154.29 158.74 128.57 158.74 180"/><polygon class="cls-10" points="238.11 180 198.43 154.29 238.11 128.57 238.11 180"/><polygon class="cls-25" points="317.48 180 277.8 154.29 317.48 128.57 317.48 180"/><polygon class="cls-9" points="357.17 154.28 396.85 180 396.85 128.57 357.17 154.28"/><polygon class="cls-28" points="0 231.43 39.69 205.71 0 180 0 231.43"/><polygon class="cls-8" points="79.37 231.43 39.69 205.71 79.37 180 79.37 231.43"/><polygon class="cls-19" points="158.74 231.43 119.06 205.71 158.74 180 158.74 231.43"/><polygon class="cls-11" points="238.11 231.43 198.43 205.71 238.11 180 238.11 231.43"/><polygon class="cls-29" points="317.48 231.43 277.8 205.71 317.48 180 317.48 231.43"/><polygon class="cls-1" points="357.17 205.71 396.85 231.43 396.85 180 357.17 205.71"/><polygon class="cls-10" points="0 282.86 39.69 257.14 0 231.43 0 282.86"/><polygon class="cls-17" points="79.37 282.86 39.69 257.14 79.37 231.43 79.37 282.86"/><polygon class="cls-30" points="158.74 282.86 119.06 257.14 158.74 231.43 158.74 282.86"/><polygon class="cls-25" points="238.11 282.86 198.43 257.14 238.11 231.43 238.11 282.86"/><polygon class="cls-14" points="317.48 282.86 277.8 257.14 317.48 231.43 317.48 282.86"/><polygon class="cls-17" points="357.17 257.14 396.85 282.86 396.85 231.43 357.17 257.14"/><polygon class="cls-31" points="0 334.29 39.69 308.57 0 282.86 0 334.29"/><polygon class="cls-1" points="79.37 334.29 39.69 308.57 79.37 282.86 79.37 334.29"/><polygon class="cls-25" points="158.74 334.29 119.06 308.57 158.74 282.86 158.74 334.29"/><polygon class="cls-11" points="238.11 334.29 198.43 308.57 238.11 282.86 238.11 334.29"/><polygon class="cls-32" points="317.48 334.29 277.8 308.57 317.48 282.86 317.48 334.29"/><polygon class="cls-24" points="357.17 308.57 396.85 334.29 396.85 282.86 357.17 308.57"/><polygon class="cls-24" points="0 282.86 39.69 308.57 39.69 257.14 0 282.86"/><polygon class="cls-10" points="39.69 257.14 79.37 282.86 39.69 308.57 39.69 257.14"/><polygon class="cls-9" points="119.06 257.14 158.74 282.86 119.06 308.57 119.06 257.14"/><polygon class="cls-21" points="198.43 257.14 238.11 282.86 198.43 308.57 198.43 257.14"/><polygon class="cls-29" points="277.8 257.14 317.48 282.86 277.8 308.57 277.8 257.14"/><polygon class="cls-9" points="357.17 308.57 396.85 282.86 357.17 257.14 357.17 308.57"/><polygon class="cls-19" points="0 334.29 39.69 360 39.69 308.57 0 334.29"/><polygon class="cls-9" points="39.69 360 79.37 334.29 39.69 308.57 39.69 360"/><polygon class="cls-17" points="119.06 360 158.74 334.29 119.06 308.57 119.06 360"/><polygon class="cls-32" points="198.43 360 238.11 334.29 198.43 308.57 198.43 360"/><polygon class="cls-24" points="277.8 360 317.48 334.29 277.8 308.57 277.8 360"/><polygon class="cls-8" points="357.17 360 396.85 334.29 357.17 308.57 357.17 360"/><polygon class="cls-33" points="119.06 257.14 79.37 282.86 119.06 308.57 119.06 257.14"/><polygon class="cls-22" points="79.37 334.29 119.06 360 119.06 308.57 79.37 334.29"/><polygon class="cls-24" points="198.43 257.14 158.74 282.86 198.43 308.57 198.43 257.14"/><polygon class="cls-34" points="158.74 334.29 198.43 360 198.43 308.57 158.74 334.29"/><polygon class="cls-35" points="277.8 257.14 238.11 282.86 277.8 308.57 277.8 257.14"/><polygon class="cls-13" points="238.11 334.29 277.8 360 277.8 308.57 238.11 334.29"/><polygon class="cls-5" points="357.17 257.14 317.48 282.86 357.17 308.57 357.17 257.14"/><polygon class="cls-36" points="317.48 334.29 357.17 360 357.17 308.57 317.48 334.29"/><polygon class="cls-37" points="0 231.43 39.69 257.14 39.69 205.71 0 231.43"/><polygon class="cls-38" points="39.69 205.71 79.37 231.43 39.69 257.14 39.69 205.71"/><polygon class="cls-9" points="119.06 205.71 158.74 231.43 119.06 257.14 119.06 205.71"/><polygon class="cls-15" points="198.43 205.71 238.11 231.43 198.43 257.14 198.43 205.71"/><polygon class="cls-7" points="277.8 205.71 317.48 231.43 277.8 257.14 277.8 205.71"/><polygon class="cls-11" points="357.17 257.14 396.85 231.43 357.17 205.71 357.17 257.14"/><polygon class="cls-7" points="119.06 205.71 79.37 231.43 119.06 257.14 119.06 205.71"/><polygon class="cls-10" points="198.43 205.71 158.74 231.43 198.43 257.14 198.43 205.71"/><polygon class="cls-39" points="277.8 205.71 238.11 231.43 277.8 257.14 277.8 205.71"/><polygon class="cls-40" points="357.17 205.71 317.48 231.43 357.17 257.14 357.17 205.71"/><polygon class="cls-10" points="0 180 39.69 205.71 39.69 154.28 0 180"/><polygon class="cls-17" points="39.69 154.28 79.37 180 39.69 205.71 39.69 154.28"/><polygon class="cls-41" points="119.06 154.28 158.74 180 119.06 205.71 119.06 154.28"/><polygon class="cls-5" points="198.43 154.28 238.11 180 198.43 205.71 198.43 154.28"/><polygon class="cls-1" points="277.8 154.28 317.48 180 277.8 205.71 277.8 154.28"/><polygon class="cls-35" points="357.17 205.71 396.85 180 357.17 154.28 357.17 205.71"/><polygon class="cls-31" points="119.06 154.28 79.37 180 119.06 205.71 119.06 154.28"/><polygon class="cls-21" points="198.43 154.28 158.74 180 198.43 205.71 198.43 154.28"/><polygon class="cls-35" points="277.8 154.28 238.11 180 277.8 205.71 277.8 154.28"/><polygon class="cls-28" points="357.17 154.28 317.48 180 357.17 205.71 357.17 154.28"/><polygon class="cls-40" points="0 128.57 39.69 154.28 39.69 102.86 0 128.57"/><polygon class="cls-14" points="39.69 102.86 79.37 128.57 39.69 154.28 39.69 102.86"/><polygon class="cls-24" points="119.06 102.86 158.74 128.57 119.06 154.28 119.06 102.86"/><polygon class="cls-24" points="198.43 102.86 238.11 128.57 198.43 154.28 198.43 102.86"/><polygon class="cls-17" points="277.8 102.86 317.48 128.57 277.8 154.28 277.8 102.86"/><polygon class="cls-13" points="357.17 154.28 396.85 128.57 357.17 102.86 357.17 154.28"/><polygon class="cls-10" points="119.06 102.86 79.37 128.57 119.06 154.28 119.06 102.86"/><polygon class="cls-7" points="198.43 102.86 158.74 128.57 198.43 154.28 198.43 102.86"/><polygon class="cls-42" points="277.8 102.86 238.11 128.57 277.8 154.28 277.8 102.86"/><polygon class="cls-35" points="357.17 102.86 317.48 128.57 357.17 154.28 357.17 102.86"/><polygon class="cls-39" points="0 77.14 39.69 102.86 39.69 51.43 0 77.14"/><polygon class="cls-9" points="39.69 51.43 79.37 77.14 39.69 102.86 39.69 51.43"/><polygon class="cls-42" points="119.06 51.43 158.74 77.14 119.06 102.86 119.06 51.43"/><polygon class="cls-4" points="198.43 51.43 238.11 77.14 198.43 102.86 198.43 51.43"/><polygon class="cls-10" points="277.8 51.43 317.48 77.14 277.8 102.86 277.8 51.43"/><polygon class="cls-3" points="357.17 102.86 396.85 77.14 357.17 51.43 357.17 102.86"/><polygon class="cls-33" points="119.06 51.43 79.37 77.14 119.06 102.86 119.06 51.43"/><polygon class="cls-17" points="198.43 51.43 158.74 77.14 198.43 102.86 198.43 51.43"/><polygon class="cls-17" points="277.8 51.43 238.11 77.14 277.8 102.86 277.8 51.43"/><polygon class="cls-10" points="357.17 51.43 317.48 77.14 357.17 102.86 357.17 51.43"/><polygon class="cls-11" points="39.69 0 0 25.71 39.69 51.43 39.69 0"/><polygon class="cls-24" points="39.69 0 39.69 51.43 79.37 25.71 39.69 0"/><polygon class="cls-5" points="119.06 0 119.06 51.43 158.74 25.71 119.06 0"/><polygon class="cls-10" points="198.43 0 198.43 51.43 238.11 25.71 198.43 0"/><polygon class="cls-30" points="277.8 0 277.8 51.43 317.48 25.71 277.8 0"/><polygon class="cls-24" points="357.17 0 357.17 51.43 396.85 25.71 357.17 0"/><polygon class="cls-25" points="119.06 0 79.37 25.71 119.06 51.43 119.06 0"/><polygon class="cls-36" points="198.43 0 158.74 25.71 198.43 51.43 198.43 0"/><polygon class="cls-40" points="277.8 0 238.11 25.71 277.8 51.43 277.8 0"/><polygon class="cls-17" points="357.17 0 317.48 25.71 357.17 51.43 357.17 0"/></g></g></svg>