<svg id="Ebene_1" data-name="Ebene 1" xmlns="http://www.w3.org/2000/svg" viewBox="0 0 238.11 128.57"><defs><style>.cls-1{fill:#f7f6d1;}.cls-2{fill:#c0e1d7;}.cls-3{fill:#fbdbe3;}.cls-4{fill:#8bcbb7;}.cls-5{fill:#fed27a;}.cls-6{fill:#e3edc6;}.cls-7{fill:#77c8d2;}.cls-8{fill:#f3ecc3;}.cls-9{fill:#f9d3e6;}</style></defs><title>triangle-top-right</title><polygon class="cls-1" points="79.37 0 39.69 0 79.37 25.71 79.37 0"/><polygon class="cls-2" points="0 0 39.69 0 0 25.71 0 0"/><polygon class="cls-3" points="79.37 0 119.06 0 79.37 25.71 79.37 0"/><polygon class="cls-4" points="238.11 128.57 198.43 102.86 238.11 77.14 238.11 128.57"/><polygon class="cls-5" points="238.11 128.57 198.43 102.86 238.11 77.14 238.11 128.57"/><polygon class="cls-6" points="198.43 51.43 158.74 77.14 198.43 102.86 198.43 51.43"/><polygon class="cls-7" points="119.06 0 158.74 25.71 119.06 51.43 119.06 0"/><polygon class="cls-8" points="198.43 0 238.11 25.71 198.43 51.43 198.43 0"/><polygon class="cls-9" points="198.43 0 158.74 25.71 198.43 51.43 198.43 0"/></svg>